<svg width="28" height="28" viewBox="0 0 28 28" fill="none" xmlns="http://www.w3.org/2000/svg">
<g clip-path="url(#clip0_43_43)">
<path d="M6.56037 4.82129H4.80988V5.68114H6.56037V4.82129Z" fill="#0D51BE" stroke="#0D51BE" stroke-width="0.5"/>
<path d="M23.19 4.82129H21.4395V5.68114H23.19V4.82129Z" fill="#0D51BE" stroke="#0D51BE" stroke-width="0.5"/>
<path d="M22.7447 1.33957V0H21.8848V1.33957H6.11509V0H5.25524V1.33957H0.0038147V8.30709H1.75431V28H26.2457V8.30709H27.9962V1.33957H22.7447ZM25.3858 27.1401H2.61405V10.0575H25.3858V27.1401H25.3858ZM25.3858 9.19773H2.61405V8.30714H25.3858V9.19773H25.3858ZM0.863612 7.44729V2.19937H5.25524V3.53899H6.11509V2.19937H21.8848V3.53899H22.7447V2.19937H27.1363V7.44723H0.863612V7.44729Z" fill="#0D51BE" stroke="#0D51BE" stroke-width="0.5"/>
<path d="M14.4376 24.9521H13.5623V25.812H14.4376V24.9521Z" fill="#0D51BE" stroke="#0D51BE" stroke-width="0.5"/>
<path d="M12.687 24.9521H11.8117V25.812H12.687V24.9521Z" fill="#0D51BE" stroke="#0D51BE" stroke-width="0.5"/>
<path d="M16.1882 24.9521H15.3129V25.812H16.1882V24.9521Z" fill="#0D51BE" stroke="#0D51BE" stroke-width="0.5"/>
<path d="M19.1178 14.3077L18.5098 13.6997L13.1247 19.0848L11.6782 17.6383L11.0703 18.2463L13.1247 20.3008L19.1178 14.3077Z" fill="#0D51BE" stroke="#0D51BE" stroke-width="0.5"/>
</g>
<defs>
<clipPath id="clip0_43_43">
<rect width="28" height="28" fill="white"/>
</clipPath>
</defs>
</svg>
