<svg width="57" height="57" viewBox="0 0 57 57" fill="none" xmlns="http://www.w3.org/2000/svg">
<g clip-path="url(#clip0_13_168)">
<path fill-rule="evenodd" clip-rule="evenodd" d="M11 3H50C50.5523 3 51 3.44772 51 4V55C51 55.5523 50.5523 56 50 56H11C10.4477 56 10 55.5523 10 55V4C10 3.44772 10.4477 3 11 3ZM9 4C9 2.89543 9.89543 2 11 2H50C51.1046 2 52 2.89543 52 4V55C52 56.1046 51.1046 57 50 57H11C9.89543 57 9 56.1046 9 55V4ZM29.2381 16.2951C29.2381 20.0286 26.2115 23.0552 22.478 23.0552C18.7446 23.0552 15.718 20.0286 15.718 16.2951C15.718 12.5616 18.7446 9.53505 22.478 9.53505C26.2115 9.53505 29.2381 12.5616 29.2381 16.2951ZM30.2381 16.2951C30.2381 20.5809 26.7638 24.0552 22.478 24.0552C18.1923 24.0552 14.718 20.5809 14.718 16.2951C14.718 12.0093 18.1923 8.53505 22.478 8.53505C26.7638 8.53505 30.2381 12.0093 30.2381 16.2951ZM38.3077 22.6044C40.4622 22.6044 42.2088 20.8578 42.2088 18.7033C42.2088 16.5488 40.4622 14.8022 38.3077 14.8022C36.1532 14.8022 34.4066 16.5488 34.4066 18.7033C34.4066 20.8578 36.1532 22.6044 38.3077 22.6044ZM38.3077 23.6044C41.0145 23.6044 43.2088 21.4101 43.2088 18.7033C43.2088 15.9965 41.0145 13.8022 38.3077 13.8022C35.6009 13.8022 33.4066 15.9965 33.4066 18.7033C33.4066 21.4101 35.6009 23.6044 38.3077 23.6044ZM25.9707 33.7582C25.9707 35.9127 24.2241 37.6593 22.0696 37.6593C19.9151 37.6593 18.1685 35.9127 18.1685 33.7582C18.1685 31.6037 19.9151 29.8571 22.0696 29.8571C24.2241 29.8571 25.9707 31.6037 25.9707 33.7582ZM26.9707 33.7582C26.9707 36.465 24.7764 38.6593 22.0696 38.6593C19.3628 38.6593 17.1685 36.465 17.1685 33.7582C17.1685 31.0514 19.3628 28.8571 22.0696 28.8571C24.7764 28.8571 26.9707 31.0514 26.9707 33.7582ZM38.7161 44.293C42.4496 44.293 45.4762 41.2664 45.4762 37.5329C45.4762 33.7995 42.4496 30.7729 38.7161 30.7729C34.9826 30.7729 31.9561 33.7995 31.9561 37.5329C31.9561 41.2664 34.9826 44.293 38.7161 44.293ZM38.7161 45.293C43.0019 45.293 46.4762 41.8187 46.4762 37.5329C46.4762 33.2472 43.0019 29.7729 38.7161 29.7729C34.4303 29.7729 30.9561 33.2472 30.9561 37.5329C30.9561 41.8187 34.4303 45.293 38.7161 45.293ZM24.9707 50.1939H18.436V52.6445H24.9707V50.1939ZM27.4212 50.1938H33.956V52.6444H27.4212V50.1938ZM42.9414 50.1938H36.4066V52.6444H42.9414V50.1938Z" fill="#0048BB"/>
<path d="M18.436 50.1939V49.9439H18.186V50.1939H18.436ZM24.9707 50.1939H25.2207V49.9439H24.9707V50.1939ZM18.436 52.6445H18.186V52.8945H18.436V52.6445ZM24.9707 52.6445V52.8945H25.2207V52.6445H24.9707ZM33.956 50.1938H34.206V49.9438H33.956V50.1938ZM27.4212 50.1938V49.9438H27.1712V50.1938H27.4212ZM33.956 52.6444V52.8944H34.206V52.6444H33.956ZM27.4212 52.6444H27.1712V52.8944H27.4212V52.6444ZM36.4066 50.1938V49.9438H36.1566V50.1938H36.4066ZM42.9414 50.1938H43.1914V49.9438H42.9414V50.1938ZM36.4066 52.6444H36.1566V52.8944H36.4066V52.6444ZM42.9414 52.6444V52.8944H43.1914V52.6444H42.9414ZM50 2.75H11V3.25H50V2.75ZM51.25 4C51.25 3.30964 50.6904 2.75 50 2.75V3.25C50.4142 3.25 50.75 3.58579 50.75 4H51.25ZM51.25 55V4H50.75V55H51.25ZM50 56.25C50.6904 56.25 51.25 55.6904 51.25 55H50.75C50.75 55.4142 50.4142 55.75 50 55.75V56.25ZM11 56.25H50V55.75H11V56.25ZM9.75 55C9.75 55.6904 10.3096 56.25 11 56.25V55.75C10.5858 55.75 10.25 55.4142 10.25 55H9.75ZM9.75 4V55H10.25V4H9.75ZM11 2.75C10.3096 2.75 9.75 3.30964 9.75 4H10.25C10.25 3.58579 10.5858 3.25 11 3.25V2.75ZM11 1.75C9.75736 1.75 8.75 2.75736 8.75 4H9.25C9.25 3.0335 10.0335 2.25 11 2.25V1.75ZM50 1.75H11V2.25H50V1.75ZM52.25 4C52.25 2.75736 51.2426 1.75 50 1.75V2.25C50.9665 2.25 51.75 3.0335 51.75 4H52.25ZM52.25 55V4H51.75V55H52.25ZM50 57.25C51.2426 57.25 52.25 56.2426 52.25 55H51.75C51.75 55.9665 50.9665 56.75 50 56.75V57.25ZM11 57.25H50V56.75H11V57.25ZM8.75 55C8.75 56.2426 9.75736 57.25 11 57.25V56.75C10.0335 56.75 9.25 55.9665 9.25 55H8.75ZM8.75 4V55H9.25V4H8.75ZM22.478 23.3052C26.3496 23.3052 29.4881 20.1667 29.4881 16.2951H28.9881C28.9881 19.8905 26.0734 22.8052 22.478 22.8052V23.3052ZM15.468 16.2951C15.468 20.1667 18.6065 23.3052 22.478 23.3052V22.8052C18.8826 22.8052 15.968 19.8905 15.968 16.2951H15.468ZM22.478 9.28505C18.6065 9.28505 15.468 12.4236 15.468 16.2951H15.968C15.968 12.6997 18.8826 9.78505 22.478 9.78505V9.28505ZM29.4881 16.2951C29.4881 12.4236 26.3496 9.28505 22.478 9.28505V9.78505C26.0734 9.78505 28.9881 12.6997 28.9881 16.2951H29.4881ZM22.478 24.3052C26.9019 24.3052 30.4881 20.7189 30.4881 16.2951H29.9881C29.9881 20.4428 26.6257 23.8052 22.478 23.8052V24.3052ZM14.468 16.2951C14.468 20.7189 18.0542 24.3052 22.478 24.3052V23.8052C18.3304 23.8052 14.968 20.4428 14.968 16.2951H14.468ZM22.478 8.28505C18.0542 8.28505 14.468 11.8713 14.468 16.2951H14.968C14.968 12.1474 18.3304 8.78505 22.478 8.78505V8.28505ZM30.4881 16.2951C30.4881 11.8713 26.9019 8.28505 22.478 8.28505V8.78505C26.6257 8.78505 29.9881 12.1474 29.9881 16.2951H30.4881ZM41.9588 18.7033C41.9588 20.7198 40.3241 22.3544 38.3077 22.3544V22.8544C40.6003 22.8544 42.4588 20.9959 42.4588 18.7033H41.9588ZM38.3077 15.0522C40.3241 15.0522 41.9588 16.6869 41.9588 18.7033H42.4588C42.4588 16.4108 40.6003 14.5522 38.3077 14.5522V15.0522ZM34.6566 18.7033C34.6566 16.6869 36.2912 15.0522 38.3077 15.0522V14.5522C36.0151 14.5522 34.1566 16.4108 34.1566 18.7033H34.6566ZM38.3077 22.3544C36.2912 22.3544 34.6566 20.7198 34.6566 18.7033H34.1566C34.1566 20.9959 36.0151 22.8544 38.3077 22.8544V22.3544ZM42.9588 18.7033C42.9588 21.2721 40.8764 23.3544 38.3077 23.3544V23.8544C41.1525 23.8544 43.4588 21.5482 43.4588 18.7033H42.9588ZM38.3077 14.0522C40.8764 14.0522 42.9588 16.1346 42.9588 18.7033H43.4588C43.4588 15.8585 41.1525 13.5522 38.3077 13.5522V14.0522ZM33.6566 18.7033C33.6566 16.1346 35.7389 14.0522 38.3077 14.0522V13.5522C35.4628 13.5522 33.1566 15.8585 33.1566 18.7033H33.6566ZM38.3077 23.3544C35.7389 23.3544 33.6566 21.2721 33.6566 18.7033H33.1566C33.1566 21.5482 35.4628 23.8544 38.3077 23.8544V23.3544ZM22.0696 37.9093C24.3622 37.9093 26.2207 36.0508 26.2207 33.7582H25.7207C25.7207 35.7746 24.086 37.4093 22.0696 37.4093V37.9093ZM17.9185 33.7582C17.9185 36.0508 19.777 37.9093 22.0696 37.9093V37.4093C20.0532 37.4093 18.4185 35.7746 18.4185 33.7582H17.9185ZM22.0696 29.6071C19.777 29.6071 17.9185 31.4656 17.9185 33.7582H18.4185C18.4185 31.7418 20.0532 30.1071 22.0696 30.1071V29.6071ZM26.2207 33.7582C26.2207 31.4656 24.3622 29.6071 22.0696 29.6071V30.1071C24.086 30.1071 25.7207 31.7418 25.7207 33.7582H26.2207ZM22.0696 38.9093C24.9145 38.9093 27.2207 36.6031 27.2207 33.7582H26.7207C26.7207 36.3269 24.6383 38.4093 22.0696 38.4093V38.9093ZM16.9185 33.7582C16.9185 36.6031 19.2247 38.9093 22.0696 38.9093V38.4093C19.5009 38.4093 17.4185 36.3269 17.4185 33.7582H16.9185ZM22.0696 28.6071C19.2247 28.6071 16.9185 30.9133 16.9185 33.7582H17.4185C17.4185 31.1895 19.5009 29.1071 22.0696 29.1071V28.6071ZM27.2207 33.7582C27.2207 30.9133 24.9145 28.6071 22.0696 28.6071V29.1071C24.6383 29.1071 26.7207 31.1895 26.7207 33.7582H27.2207ZM45.2262 37.5329C45.2262 41.1283 42.3115 44.043 38.7161 44.043V44.543C42.5877 44.543 45.7262 41.4045 45.7262 37.5329H45.2262ZM38.7161 31.0229C42.3115 31.0229 45.2262 33.9375 45.2262 37.5329H45.7262C45.7262 33.6614 42.5877 30.5229 38.7161 30.5229V31.0229ZM32.2061 37.5329C32.2061 33.9375 35.1207 31.0229 38.7161 31.0229V30.5229C34.8446 30.5229 31.7061 33.6614 31.7061 37.5329H32.2061ZM38.7161 44.043C35.1207 44.043 32.2061 41.1283 32.2061 37.5329H31.7061C31.7061 41.4045 34.8446 44.543 38.7161 44.543V44.043ZM46.2262 37.5329C46.2262 41.6806 42.8638 45.043 38.7161 45.043V45.543C43.1399 45.543 46.7262 41.9568 46.7262 37.5329H46.2262ZM38.7161 30.0229C42.8638 30.0229 46.2262 33.3853 46.2262 37.5329H46.7262C46.7262 33.1091 43.1399 29.5229 38.7161 29.5229V30.0229ZM31.2061 37.5329C31.2061 33.3853 34.5684 30.0229 38.7161 30.0229V29.5229C34.2923 29.5229 30.7061 33.1091 30.7061 37.5329H31.2061ZM38.7161 45.043C34.5684 45.043 31.2061 41.6806 31.2061 37.5329H30.7061C30.7061 41.9568 34.2923 45.543 38.7161 45.543V45.043ZM18.436 50.4439H24.9707V49.9439H18.436V50.4439ZM18.686 52.6445V50.1939H18.186V52.6445H18.686ZM24.9707 52.3945H18.436V52.8945H24.9707V52.3945ZM24.7207 50.1939V52.6445H25.2207V50.1939H24.7207ZM33.956 49.9438H27.4212V50.4438H33.956V49.9438ZM34.206 52.6444V50.1938H33.706V52.6444H34.206ZM27.4212 52.8944H33.956V52.3944H27.4212V52.8944ZM27.1712 50.1938V52.6444H27.6712V50.1938H27.1712ZM36.4066 50.4438H42.9414V49.9438H36.4066V50.4438ZM36.6566 52.6444V50.1938H36.1566V52.6444H36.6566ZM42.9414 52.3944H36.4066V52.8944H42.9414V52.3944ZM42.6914 50.1938V52.6444H43.1914V50.1938H42.6914Z" fill="#0048BB"/>
</g>
<defs>
<clipPath id="clip0_13_168">
<rect width="57" height="57" fill="white"/>
</clipPath>
</defs>
</svg>
