<svg width="99" height="97" viewBox="0 0 99 97" fill="none" xmlns="http://www.w3.org/2000/svg">
<rect width="99" height="96.0226" rx="9" fill="white"/>
<g clip-path="url(#clip0_112_436)">
<path fill-rule="evenodd" clip-rule="evenodd" d="M33 28H65C65.5523 28 66 28.4477 66 29V71.0465C66 71.5988 65.5523 72.0465 65 72.0465H33C32.4477 72.0465 32 71.5988 32 71.0465V29C32 28.4477 32.4477 28 33 28ZM31 29C31 27.8954 31.8954 27 33 27H65C66.1046 27 67 27.8954 67 29V71.0465C67 72.1511 66.1046 73.0465 65 73.0465H33C31.8954 73.0465 31 72.1511 31 71.0465V29ZM47.7801 38.968C47.7801 42.0038 45.3191 44.4648 42.2833 44.4648C39.2475 44.4648 36.7865 42.0038 36.7865 38.968C36.7865 35.9322 39.2475 33.4712 42.2833 33.4712C45.3191 33.4712 47.7801 35.9322 47.7801 38.968ZM48.7801 38.968C48.7801 42.5561 45.8714 45.4648 42.2833 45.4648C38.6952 45.4648 35.7865 42.5561 35.7865 38.968C35.7865 35.3799 38.6952 32.4712 42.2833 32.4712C45.8714 32.4712 48.7801 35.3799 48.7801 38.968ZM55.5363 44.0874C57.2502 44.0874 58.6395 42.6981 58.6395 40.9842C58.6395 39.2703 57.2502 37.8809 55.5363 37.8809C53.8224 37.8809 52.4331 39.2703 52.4331 40.9842C52.4331 42.6981 53.8224 44.0874 55.5363 44.0874ZM55.5363 45.0874C57.8025 45.0874 59.6395 43.2503 59.6395 40.9842C59.6395 38.718 57.8025 36.8809 55.5363 36.8809C53.2701 36.8809 51.4331 38.718 51.4331 40.9842C51.4331 43.2503 53.2701 45.0874 55.5363 45.0874ZM45.0454 53.5883C45.0454 55.3021 43.656 56.6915 41.9421 56.6915C40.2283 56.6915 38.8389 55.3021 38.8389 53.5883C38.8389 51.8744 40.2283 50.485 41.9421 50.485C43.656 50.485 45.0454 51.8744 45.0454 53.5883ZM46.0454 53.5883C46.0454 55.8544 44.2083 57.6915 41.9421 57.6915C39.676 57.6915 37.8389 55.8544 37.8389 53.5883C37.8389 51.3221 39.676 49.485 41.9421 49.485C44.2083 49.485 46.0454 51.3221 46.0454 53.5883ZM55.8785 62.2453C58.9143 62.2453 61.3753 59.7843 61.3753 56.7485C61.3753 53.7127 58.9143 51.2517 55.8785 51.2517C52.8427 51.2517 50.3817 53.7127 50.3817 56.7485C50.3817 59.7843 52.8427 62.2453 55.8785 62.2453ZM55.8785 63.2453C59.4666 63.2453 62.3753 60.3366 62.3753 56.7485C62.3753 53.1604 59.4666 50.2517 55.8785 50.2517C52.2904 50.2517 49.3817 53.1604 49.3817 56.7485C49.3817 60.3366 52.2904 63.2453 55.8785 63.2453ZM44.3706 67.3484H38.8996V69.4H44.3706V67.3484ZM46.422 67.3483H51.893V69.3999H46.422V67.3483ZM59.4154 67.3483H53.9444V69.3999H59.4154V67.3483Z" fill="#0048BB"/>
<path d="M38.8996 67.3484V67.0984H38.6496V67.3484H38.8996ZM44.3706 67.3484H44.6206V67.0984H44.3706V67.3484ZM38.8996 69.4H38.6496V69.65H38.8996V69.4ZM44.3706 69.4V69.65H44.6206V69.4H44.3706ZM51.893 67.3483H52.143V67.0983H51.893V67.3483ZM46.422 67.3483V67.0983H46.172V67.3483H46.422ZM51.893 69.3999V69.6499H52.143V69.3999H51.893ZM46.422 69.3999H46.172V69.6499H46.422V69.3999ZM53.9444 67.3483V67.0983H53.6944V67.3483H53.9444ZM59.4154 67.3483H59.6654V67.0983H59.4154V67.3483ZM53.9444 69.3999H53.6944V69.6499H53.9444V69.3999ZM59.4154 69.3999V69.6499H59.6654V69.3999H59.4154ZM65 27.75H33V28.25H65V27.75ZM66.25 29C66.25 28.3096 65.6904 27.75 65 27.75V28.25C65.4142 28.25 65.75 28.5858 65.75 29H66.25ZM66.25 71.0465V29H65.75V71.0465H66.25ZM65 72.2965C65.6904 72.2965 66.25 71.7369 66.25 71.0465H65.75C65.75 71.4607 65.4142 71.7965 65 71.7965V72.2965ZM33 72.2965H65V71.7965H33V72.2965ZM31.75 71.0465C31.75 71.7369 32.3096 72.2965 33 72.2965V71.7965C32.5858 71.7965 32.25 71.4607 32.25 71.0465H31.75ZM31.75 29V71.0465H32.25V29H31.75ZM33 27.75C32.3096 27.75 31.75 28.3096 31.75 29H32.25C32.25 28.5858 32.5858 28.25 33 28.25V27.75ZM33 26.75C31.7574 26.75 30.75 27.7574 30.75 29H31.25C31.25 28.0335 32.0335 27.25 33 27.25V26.75ZM65 26.75H33V27.25H65V26.75ZM67.25 29C67.25 27.7574 66.2426 26.75 65 26.75V27.25C65.9665 27.25 66.75 28.0335 66.75 29H67.25ZM67.25 71.0465V29H66.75V71.0465H67.25ZM65 73.2965C66.2426 73.2965 67.25 72.2892 67.25 71.0465H66.75C66.75 72.013 65.9665 72.7965 65 72.7965V73.2965ZM33 73.2965H65V72.7965H33V73.2965ZM30.75 71.0465C30.75 72.2892 31.7574 73.2965 33 73.2965V72.7965C32.0335 72.7965 31.25 72.013 31.25 71.0465H30.75ZM30.75 29V71.0465H31.25V29H30.75ZM42.2833 44.7148C45.4572 44.7148 48.0301 42.1419 48.0301 38.968H47.5301C47.5301 41.8657 45.181 44.2148 42.2833 44.2148V44.7148ZM36.5365 38.968C36.5365 42.1419 39.1094 44.7148 42.2833 44.7148V44.2148C39.3856 44.2148 37.0365 41.8657 37.0365 38.968H36.5365ZM42.2833 33.2212C39.1094 33.2212 36.5365 35.7941 36.5365 38.968H37.0365C37.0365 36.0703 39.3856 33.7212 42.2833 33.7212V33.2212ZM48.0301 38.968C48.0301 35.7941 45.4572 33.2212 42.2833 33.2212V33.7212C45.181 33.7212 47.5301 36.0703 47.5301 38.968H48.0301ZM42.2833 45.7148C46.0095 45.7148 49.0301 42.6941 49.0301 38.968H48.5301C48.5301 42.418 45.7333 45.2148 42.2833 45.2148V45.7148ZM35.5365 38.968C35.5365 42.6941 38.5572 45.7148 42.2833 45.7148V45.2148C38.8333 45.2148 36.0365 42.418 36.0365 38.968H35.5365ZM42.2833 32.2212C38.5572 32.2212 35.5365 35.2418 35.5365 38.968H36.0365C36.0365 35.518 38.8333 32.7212 42.2833 32.7212V32.2212ZM49.0301 38.968C49.0301 35.2418 46.0095 32.2212 42.2833 32.2212V32.7212C45.7333 32.7212 48.5301 35.518 48.5301 38.968H49.0301ZM58.3895 40.9842C58.3895 42.56 57.1121 43.8374 55.5363 43.8374V44.3374C57.3882 44.3374 58.8895 42.8361 58.8895 40.9842H58.3895ZM55.5363 38.1309C57.1121 38.1309 58.3895 39.4084 58.3895 40.9842H58.8895C58.8895 39.1322 57.3882 37.6309 55.5363 37.6309V38.1309ZM52.6831 40.9842C52.6831 39.4084 53.9605 38.1309 55.5363 38.1309V37.6309C53.6844 37.6309 52.1831 39.1322 52.1831 40.9842H52.6831ZM55.5363 43.8374C53.9605 43.8374 52.6831 42.56 52.6831 40.9842H52.1831C52.1831 42.8361 53.6844 44.3374 55.5363 44.3374V43.8374ZM59.3895 40.9842C59.3895 43.1123 57.6644 44.8374 55.5363 44.8374V45.3374C57.9405 45.3374 59.8895 43.3884 59.8895 40.9842H59.3895ZM55.5363 37.1309C57.6644 37.1309 59.3895 38.8561 59.3895 40.9842H59.8895C59.8895 38.58 57.9405 36.6309 55.5363 36.6309V37.1309ZM51.6831 40.9842C51.6831 38.8561 53.4082 37.1309 55.5363 37.1309V36.6309C53.1321 36.6309 51.1831 38.58 51.1831 40.9842H51.6831ZM55.5363 44.8374C53.4082 44.8374 51.6831 43.1123 51.6831 40.9842H51.1831C51.1831 43.3884 53.1321 45.3374 55.5363 45.3374V44.8374ZM41.9421 56.9415C43.7941 56.9415 45.2954 55.4402 45.2954 53.5883H44.7954C44.7954 55.1641 43.5179 56.4415 41.9421 56.4415V56.9415ZM38.5889 53.5883C38.5889 55.4402 40.0902 56.9415 41.9421 56.9415V56.4415C40.3663 56.4415 39.0889 55.1641 39.0889 53.5883H38.5889ZM41.9421 50.235C40.0902 50.235 38.5889 51.7363 38.5889 53.5883H39.0889C39.0889 52.0125 40.3663 50.735 41.9421 50.735V50.235ZM45.2954 53.5883C45.2954 51.7363 43.7941 50.235 41.9421 50.235V50.735C43.5179 50.735 44.7954 52.0125 44.7954 53.5883H45.2954ZM41.9421 57.9415C44.3464 57.9415 46.2954 55.9925 46.2954 53.5883H45.7954C45.7954 55.7163 44.0702 57.4415 41.9421 57.4415V57.9415ZM37.5889 53.5883C37.5889 55.9925 39.5379 57.9415 41.9421 57.9415V57.4415C39.814 57.4415 38.0889 55.7163 38.0889 53.5883H37.5889ZM41.9421 49.235C39.5379 49.235 37.5889 51.184 37.5889 53.5883H38.0889C38.0889 51.4602 39.814 49.735 41.9421 49.735V49.235ZM46.2954 53.5883C46.2954 51.184 44.3464 49.235 41.9421 49.235V49.735C44.0702 49.735 45.7954 51.4602 45.7954 53.5883H46.2954ZM61.1253 56.7485C61.1253 59.6462 58.7762 61.9953 55.8785 61.9953V62.4953C59.0524 62.4953 61.6253 59.9224 61.6253 56.7485H61.1253ZM55.8785 51.5017C58.7762 51.5017 61.1253 53.8508 61.1253 56.7485H61.6253C61.6253 53.5746 59.0524 51.0017 55.8785 51.0017V51.5017ZM50.6317 56.7485C50.6317 53.8508 52.9808 51.5017 55.8785 51.5017V51.0017C52.7046 51.0017 50.1317 53.5746 50.1317 56.7485H50.6317ZM55.8785 61.9953C52.9808 61.9953 50.6317 59.6462 50.6317 56.7485H50.1317C50.1317 59.9224 52.7046 62.4953 55.8785 62.4953V61.9953ZM62.1253 56.7485C62.1253 60.1985 59.3285 62.9953 55.8785 62.9953V63.4953C59.6046 63.4953 62.6253 60.4747 62.6253 56.7485H62.1253ZM55.8785 50.5017C59.3285 50.5017 62.1253 53.2985 62.1253 56.7485H62.6253C62.6253 53.0224 59.6046 50.0017 55.8785 50.0017V50.5017ZM49.6317 56.7485C49.6317 53.2985 52.4285 50.5017 55.8785 50.5017V50.0017C52.1523 50.0017 49.1317 53.0224 49.1317 56.7485H49.6317ZM55.8785 62.9953C52.4285 62.9953 49.6317 60.1985 49.6317 56.7485H49.1317C49.1317 60.4747 52.1523 63.4953 55.8785 63.4953V62.9953ZM38.8996 67.5984H44.3706V67.0984H38.8996V67.5984ZM39.1496 69.4V67.3484H38.6496V69.4H39.1496ZM44.3706 69.15H38.8996V69.65H44.3706V69.15ZM44.1206 67.3484V69.4H44.6206V67.3484H44.1206ZM51.893 67.0983H46.422V67.5983H51.893V67.0983ZM52.143 69.3999V67.3483H51.643V69.3999H52.143ZM46.422 69.6499H51.893V69.1499H46.422V69.6499ZM46.172 67.3483V69.3999H46.672V67.3483H46.172ZM53.9444 67.5983H59.4154V67.0983H53.9444V67.5983ZM54.1944 69.3999V67.3483H53.6944V69.3999H54.1944ZM59.4154 69.1499H53.9444V69.6499H59.4154V69.1499ZM59.1654 67.3483V69.3999H59.6654V67.3483H59.1654Z" fill="#0048BB"/>
</g>
<defs>
<clipPath id="clip0_112_436">
<rect width="48" height="48" fill="white" transform="translate(24 25)"/>
</clipPath>
</defs>
</svg>
