<svg width="99" height="97" viewBox="0 0 99 97" fill="none" xmlns="http://www.w3.org/2000/svg">
<rect width="99" height="96.0226" rx="9" fill="white"/>
<path d="M32.586 24.5832C31.2165 24.9691 30.1409 26.063 29.7732 27.4421C29.681 27.7728 29.6445 28.6464 29.6445 30.6413V33.3806L29.8745 33.6014L30.0953 33.8314H48.425C65.753 33.8314 66.773 33.8222 66.9569 33.6658C67.0673 33.5832 67.1777 33.3624 67.205 33.1786C67.2511 32.9122 67.2141 32.8018 67.0303 32.581L66.8004 32.3146L48.9943 32.2872L31.1978 32.269L31.2257 29.9894C31.253 27.8659 31.2626 27.6912 31.4556 27.3514C31.6855 26.9194 32.1357 26.4782 32.5865 26.2392C32.8989 26.0736 33.5057 26.0645 50.0061 26.0645H67.1042L67.4719 26.2666C67.9039 26.4965 68.345 26.9467 68.5841 27.3974C68.7497 27.7099 68.7588 28.3536 68.7588 46.4261V65.1312L68.5567 65.508C68.1521 66.2616 67.2237 66.8318 66.3967 66.8318C66.2402 66.8318 66.0381 66.924 65.9095 67.0618C65.6887 67.273 65.6796 67.319 65.6796 68.6246V69.9576H50.0057H34.3327V69.1762V68.3947H48.9578H63.5829L63.8493 68.1283C64.217 67.7606 64.1805 67.2734 63.7572 66.9518C63.6468 66.8597 60.2273 66.8414 48.4793 66.8323C31.6572 66.8323 32.7511 66.8693 32.0249 66.2165C31.8228 66.0326 31.565 65.711 31.4551 65.5085L31.253 65.1317L31.2069 50.4974L31.1609 35.8632L30.9679 35.6611C30.6737 35.376 30.1221 35.3947 29.8557 35.7163L29.6445 35.9554V50.4509C29.6445 62.2541 29.6719 65.0304 29.7732 65.4072C30.1226 66.7128 31.0783 67.7419 32.3469 68.1739L32.7698 68.3213V69.6542V70.9872L33.0362 71.2536L33.3026 71.52H50.0052H66.7087L66.9751 71.2536L67.2415 70.9872V69.6542V68.3213L67.6644 68.1739C68.9791 67.7237 69.9808 66.611 70.266 65.269C70.3485 64.8922 70.3672 60.1488 70.3485 46.1026L70.3212 27.4416L70.0269 26.8166C69.6223 25.9618 68.933 25.2629 68.0781 24.8405L67.3889 24.5002L50.1991 24.4819C36.6031 24.4728 32.9172 24.4915 32.586 24.5832Z" fill="#0048BB"/>
<path d="M57.1486 27.7728C56.5971 28.0488 56.358 28.4165 56.3211 29.0966C56.2937 29.5565 56.3211 29.6942 56.5049 29.9606C56.8265 30.4296 57.1577 30.6317 57.6723 30.6869C58.2511 30.7421 58.6006 30.6043 58.9961 30.1536C59.695 29.3813 59.4372 28.1957 58.4719 27.7546C57.9756 27.5342 57.6358 27.5342 57.1486 27.7728Z" fill="#0048BB"/>
<path d="M63.3991 27.7728C62.3878 28.2782 62.2591 29.7125 63.1692 30.4018C63.9137 30.9715 65.0811 30.696 65.4857 29.8502C65.7156 29.3722 65.7247 29.0688 65.5318 28.6094C65.155 27.6994 64.2636 27.3499 63.3991 27.7728Z" fill="#0048BB"/>
<path d="M34.6082 28.5912C34.2131 28.9862 34.2957 29.6026 34.792 29.8507C34.9667 29.9429 35.8586 29.9702 38.3037 29.9702H41.5763L41.8615 29.7312C42.2291 29.4278 42.257 28.968 41.9167 28.6373L41.6959 28.4074H38.2394C34.9303 28.4074 34.7829 28.4165 34.6082 28.5912Z" fill="#0048BB"/>
<path d="M34.7004 35.4763C34.195 35.5867 33.6435 35.9083 33.331 36.2851C32.7334 37.0114 32.7612 36.1474 32.7886 50.5152L32.816 63.5683L33.018 63.9451C33.294 64.4693 33.9099 64.9656 34.4614 65.1312C35.1507 65.3333 64.8608 65.3429 65.5505 65.1312C66.1112 64.9656 66.6171 64.5614 66.9478 64.0008L67.196 63.5688L67.2233 50.5157C67.2507 36.1478 67.2785 37.0118 66.6809 36.2856C66.5244 36.0926 66.1846 35.8258 65.9177 35.688L65.4488 35.4398L50.2352 35.4307C41.8707 35.4211 34.8752 35.4394 34.7004 35.4763ZM65.4123 37.223L65.6331 37.3978L65.6604 50.267L65.6787 63.1459L65.4579 63.4032L65.2376 63.6605H50.0057H34.7739L34.5531 63.4032L34.3323 63.1459L34.3505 50.267L34.3779 37.3978L34.5987 37.223C34.8104 37.0483 35.1872 37.0483 50.0052 37.0483C64.8243 37.0483 65.2011 37.0483 65.4123 37.223Z" fill="#0048BB"/>
<path d="M44.582 48.1162C42.6975 48.4838 41.1443 49.3387 39.8387 50.7178C37.0719 53.6592 36.6947 58.044 38.9377 61.3997C39.4431 62.1629 39.8751 62.2915 40.3811 61.8408C40.6662 61.5744 40.6475 61.1237 40.3167 60.6456C37.5313 56.5733 39.5631 51.0854 44.3612 49.7707C45.17 49.5408 47.018 49.5408 47.8451 49.7707C50.1985 50.4048 52.1934 52.3536 52.8553 54.6427C53.3699 56.4538 53.1035 58.6046 52.166 60.1214C51.5502 61.1328 51.5041 61.2706 51.6515 61.6291C51.734 61.8312 51.8718 61.969 52.0652 62.0338C52.5155 62.1898 52.8097 62.0338 53.2417 61.381C54.6111 59.3218 55.034 56.8214 54.4182 54.4133C54.2435 53.724 53.5907 52.3176 53.1774 51.7109C52.0465 50.0741 50.1803 48.7685 48.2132 48.263C47.2297 48.0058 45.5108 47.9323 44.582 48.1162Z" fill="#0048BB"/>
<path d="M53.0302 48.2078C52.8373 48.3734 52.7729 48.5021 52.7729 48.7685C52.7729 49.0349 52.8373 49.1635 53.0302 49.3291L53.2784 49.5494H57.6449H62.0206L62.287 49.283C62.4435 49.1174 62.5534 48.9154 62.5534 48.7685C62.5534 48.6216 62.443 48.419 62.287 48.2539L62.0206 47.9875H57.6449H53.2784L53.0302 48.2078Z" fill="#0048BB"/>
<path d="M55.3926 51.3518C55.025 51.6552 54.9971 52.1146 55.3374 52.4458L55.5582 52.6757H58.8218H62.0757L62.3147 52.3906C62.6272 52.0229 62.6181 51.7104 62.2869 51.3792L62.0205 51.1128H58.8491H55.6778L55.3926 51.3518Z" fill="#0048BB"/>
<path d="M45.2719 52.7765C44.2241 52.9786 43.0471 53.9069 42.5787 54.8909C41.227 57.7589 43.5343 60.8938 46.6692 60.4704C47.8827 60.3144 49.05 59.4408 49.6198 58.2826C49.8958 57.7219 49.914 57.6389 49.914 56.628C49.914 55.6262 49.8958 55.5341 49.6198 54.9456C48.8475 53.3189 47.0643 52.427 45.2719 52.7765ZM47.239 54.5875C48.0022 55.0013 48.3972 55.6997 48.3972 56.6285C48.3972 57.2995 48.2503 57.6763 47.7996 58.1726C47.3215 58.7059 46.8161 58.9262 46.0899 58.9262C44.7387 58.9171 43.7551 57.9336 43.7643 56.5819C43.7734 54.8078 45.6579 53.7235 47.239 54.5875Z" fill="#0048BB"/>
<path d="M56.3302 54.3302C56.0638 54.4406 55.8156 54.9278 55.8982 55.1851C55.926 55.2955 56.0456 55.4794 56.1464 55.5898C56.3302 55.801 56.3484 55.801 59.2164 55.801C61.9558 55.801 62.1027 55.7918 62.2774 55.6171C62.6633 55.2312 62.5716 54.5966 62.0936 54.3576C61.818 54.2198 56.6614 54.192 56.3302 54.3302Z" fill="#0048BB"/>
<path d="M56.3392 57.4925C55.8241 57.7224 55.7416 58.5864 56.2105 58.8346C56.3944 58.9358 61.8822 58.9632 62.1395 58.8715C62.2129 58.8346 62.3507 58.6877 62.4246 58.5408C62.6267 58.1549 62.5168 57.7594 62.1582 57.539C61.8827 57.3734 61.671 57.3643 59.2441 57.3643C57.2492 57.373 56.56 57.4003 56.3392 57.4925Z" fill="#0048BB"/>
<path d="M55.3005 60.8198C55.0432 61.1414 55.0614 61.5274 55.3283 61.8403L55.5486 62.0976L58.6835 62.1254C61.3955 62.1437 61.8549 62.1346 62.0939 62.0059C62.5811 61.7486 62.6728 61.1602 62.2777 60.7651C62.103 60.5904 61.9561 60.5813 58.7939 60.5813H55.4848L55.3005 60.8198Z" fill="#0048BB"/>
</svg>
