<svg width="57" height="57" viewBox="0 0 57 57" fill="none" xmlns="http://www.w3.org/2000/svg">
<path d="M7.82096 0.692535C6.19475 1.15082 4.91738 2.44984 4.48076 4.08746C4.37132 4.48019 4.328 5.51759 4.328 7.88651V11.1395L4.60103 11.4017L4.86323 11.6747H26.6298C47.2068 11.6747 48.4181 11.6639 48.6364 11.4781C48.7675 11.38 48.8986 11.1178 48.9311 10.8995C48.9858 10.5832 48.9419 10.4521 48.7236 10.1899L48.4506 9.87353L27.3058 9.84104L6.17252 9.81938L6.20558 7.11245C6.23807 4.59077 6.24947 4.38329 6.47861 3.97973C6.75164 3.46673 7.2863 2.9429 7.82153 2.65904C8.1926 2.46239 8.91308 2.45155 28.5074 2.45155H48.8114L49.248 2.69153C49.761 2.96456 50.2848 3.49922 50.5687 4.03445C50.7653 4.40552 50.7762 5.16989 50.7762 26.631V48.8433L50.5362 49.2907C50.0557 50.1856 48.9533 50.8628 47.9712 50.8628C47.7854 50.8628 47.5454 50.9722 47.3926 51.1358C47.1304 51.3866 47.1196 51.4414 47.1196 52.9918V54.5746H28.5068H9.89519V53.6467V52.7187H27.2625H44.6298L44.9462 52.4024C45.3828 51.9658 45.3395 51.3872 44.8368 51.0053C44.7057 50.8959 40.645 50.8742 26.6942 50.8634C6.71801 50.8634 8.01704 50.9073 7.15463 50.1321C6.91466 49.9138 6.60857 49.5319 6.47804 49.2913L6.23807 48.8439L6.18335 31.4657L6.12863 14.0875L5.89949 13.8476C5.55008 13.509 4.89515 13.5312 4.5788 13.9131L4.328 14.197V31.4104C4.328 45.4267 4.36049 48.7236 4.48076 49.171C4.89572 50.7214 6.03059 51.9435 7.5371 52.4565L8.03927 52.6315V54.2144V55.7973L8.35562 56.1136L8.67197 56.43H28.5063H48.3417L48.658 56.1136L48.9744 55.7973V54.2144V52.6315L49.4766 52.4565C51.0378 51.9219 52.2274 50.6006 52.566 49.0069C52.664 48.5594 52.6862 42.9267 52.664 26.2468L52.6315 4.08689L52.2821 3.34475C51.8016 2.32957 50.9831 1.49966 49.9679 0.998055L49.1494 0.593929L28.7365 0.572269C12.5913 0.56144 8.21426 0.583668 7.82096 0.692535Z" fill="#0048BB"/>
<path d="M36.989 4.4802C36.334 4.80795 36.0502 5.24457 36.0063 6.05226C35.9738 6.59832 36.0063 6.76191 36.2246 7.07826C36.6065 7.63515 36.9998 7.87512 37.6108 7.94067C38.2983 8.00622 38.7132 7.84263 39.1829 7.3074C40.0128 6.39027 39.7067 4.98237 38.5605 4.45854C37.9711 4.19691 37.5675 4.19691 36.989 4.4802Z" fill="#0048BB"/>
<path d="M44.4116 4.48017C43.2106 5.08038 43.0578 6.78354 44.1385 7.60206C45.0226 8.27865 46.4089 7.95147 46.8894 6.94713C47.1624 6.37941 47.1732 6.01917 46.9441 5.47368C46.4966 4.39296 45.4381 3.978 44.4116 4.48017Z" fill="#0048BB"/>
<path d="M10.2224 5.45205C9.75328 5.92116 9.85132 6.65304 10.4407 6.94773C10.6482 7.05717 11.7072 7.08966 14.6108 7.08966H18.4971L18.8357 6.8058C19.2723 6.44556 19.3053 5.8995 18.9012 5.50677L18.639 5.23374H14.5344C10.6049 5.23374 10.4299 5.24457 10.2224 5.45205Z" fill="#0048BB"/>
<path d="M10.3318 13.6281C9.73161 13.7592 9.07668 14.1411 8.70561 14.5886C7.99596 15.451 8.02902 14.425 8.06151 31.4868L8.094 46.9874L8.33397 47.4348C8.66172 48.0573 9.39303 48.6467 10.048 48.8433C10.8665 49.0833 46.1472 49.0947 46.9663 48.8433C47.632 48.6467 48.2328 48.1667 48.6256 47.501L48.9202 46.988L48.9527 31.4874C48.9852 14.4256 49.0183 15.4516 48.3086 14.5892C48.1228 14.36 47.7193 14.0431 47.4023 13.8795L46.8455 13.5848L28.7793 13.574C18.8465 13.5626 10.5393 13.5843 10.3318 13.6281ZM46.8021 15.7024L47.0643 15.9099L47.0968 31.1921L47.1185 46.4858L46.8563 46.7913L46.5947 47.0968H28.5068H10.419L10.1568 46.7913L9.89463 46.4858L9.91629 31.1921L9.94878 15.9099L10.211 15.7024C10.4624 15.4949 10.9098 15.4949 28.5063 15.4949C46.1039 15.4949 46.5513 15.4949 46.8021 15.7024Z" fill="#0048BB"/>
<path d="M22.0664 28.638C19.8286 29.0746 17.9841 30.0898 16.4337 31.7274C13.1482 35.2203 12.7002 40.4273 15.3638 44.4121C15.964 45.3184 16.477 45.4712 17.0778 44.936C17.4164 44.6196 17.3941 44.0844 17.0014 43.5167C13.6937 38.6808 16.1065 32.164 21.8042 30.6027C22.7647 30.3297 24.9592 30.3297 25.9413 30.6027C28.736 31.3557 31.1049 33.6699 31.8909 36.3883C32.502 38.5389 32.1856 41.093 31.0724 42.8942C30.3411 44.0952 30.2864 44.2588 30.4614 44.6846C30.5594 44.9246 30.723 45.0882 30.9527 45.1651C31.4874 45.3504 31.8368 45.1651 32.3498 44.3899C33.976 41.9446 34.4782 38.9755 33.7469 36.1158C33.5394 35.2973 32.7642 33.6272 32.2734 32.9067C30.9305 30.963 28.7143 29.4126 26.3785 28.8124C25.2105 28.5069 23.1694 28.4197 22.0664 28.638Z" fill="#0048BB"/>
<path d="M32.0984 28.7468C31.8693 28.9435 31.7929 29.0962 31.7929 29.4126C31.7929 29.7289 31.8693 29.8817 32.0984 30.0783L32.3931 30.34H37.5784H42.7745L43.0909 30.0236C43.2767 29.827 43.4072 29.587 43.4072 29.4126C43.4072 29.2382 43.2761 28.9976 43.0909 28.8015L42.7745 28.4852H37.5784H32.3931L32.0984 28.7468Z" fill="#0048BB"/>
<path d="M34.9039 32.4803C34.4673 32.8405 34.4343 33.386 34.8384 33.7793L35.1006 34.0524H38.976H42.8401L43.1239 33.7138C43.495 33.2772 43.4842 32.9061 43.0909 32.5128L42.7745 32.1964H39.0085H35.2425L34.9039 32.4803Z" fill="#0048BB"/>
<path d="M22.8855 34.172C21.6412 34.412 20.2436 35.5144 19.6872 36.6829C18.0821 40.0886 20.8221 43.8113 24.5448 43.3086C25.9857 43.1233 27.372 42.0859 28.0486 40.7105C28.3763 40.0447 28.398 39.9461 28.398 38.7457C28.398 37.5561 28.3763 37.4467 28.0486 36.7479C27.1314 34.8161 25.0139 33.7571 22.8855 34.172ZM25.2214 36.3226C26.1277 36.814 26.5968 37.6433 26.5968 38.7463C26.5968 39.5431 26.4224 39.9906 25.8871 40.58C25.3194 41.2132 24.7192 41.4749 23.8568 41.4749C22.2522 41.464 21.0843 40.2961 21.0951 38.691C21.106 36.5843 23.3438 35.2966 25.2214 36.3226Z" fill="#0048BB"/>
<path d="M36.0171 36.0171C35.7008 36.1482 35.4061 36.7268 35.5041 37.0323C35.5372 37.1634 35.6791 37.3817 35.7988 37.5128C36.0171 37.7636 36.0388 37.7636 39.4445 37.7636C42.6975 37.7636 42.872 37.7528 43.0794 37.5453C43.5377 37.087 43.4288 36.3335 42.8611 36.0496C42.5339 35.886 36.4104 35.853 36.0171 36.0171Z" fill="#0048BB"/>
<path d="M36.028 39.7723C35.4164 40.0453 35.3184 41.0713 35.8753 41.366C36.0936 41.4863 42.6104 41.5188 42.9159 41.4099C43.0031 41.366 43.1667 41.1916 43.2545 41.0172C43.4944 40.5589 43.3639 40.0892 42.9381 39.8276C42.6109 39.6309 42.3596 39.6201 39.4777 39.6201C37.1087 39.6304 36.2902 39.6629 36.028 39.7723Z" fill="#0048BB"/>
<path d="M34.7945 43.7235C34.489 44.1054 34.5106 44.5637 34.8275 44.9354L35.0892 45.2409L38.8118 45.2739C42.0323 45.2956 42.5778 45.2848 42.8617 45.132C43.4402 44.8265 43.5491 44.1277 43.08 43.6586C42.8725 43.4511 42.6981 43.4403 38.9429 43.4403H35.0134L34.7945 43.7235Z" fill="#0048BB"/>
</svg>
