<svg width="57" height="57" viewBox="0 0 57 57" fill="none" xmlns="http://www.w3.org/2000/svg">
<path d="M11.3088 7.01671C10.716 7.01671 10.2372 7.49551 10.2372 8.08831C10.2372 8.68111 10.716 9.15991 11.3088 9.15991C11.9016 9.15991 12.3804 8.68111 12.3804 8.08831C12.3804 7.49551 11.9016 7.01671 11.3088 7.01671ZM46.7628 0.570007H10.2372C7.86033 0.570007 5.94513 2.49661 5.94513 4.86211V52.1322C5.94513 54.5091 7.87173 56.4243 10.2372 56.4243H46.7628C49.1397 56.4243 51.0549 54.4977 51.0549 52.1322V4.86211C51.0549 2.49661 49.1397 0.570007 46.7628 0.570007ZM38.1672 54.2868H10.2315C9.04593 54.2868 8.08263 53.3292 8.08263 52.1379V15.6123H48.906V52.1379C48.906 53.3292 47.9484 54.2868 46.7571 54.2868H44.6139M48.906 13.4577H8.08833V4.86211C8.08833 3.67081 9.04593 2.71321 10.2372 2.71321H46.7628C47.9484 2.71321 48.9117 3.67081 48.9117 4.86211L48.906 13.4577ZM28.5 4.86211H22.0476C20.2635 4.86211 18.8271 6.30991 18.8271 8.08261C18.8271 9.86101 20.2692 11.3031 22.0476 11.3031H28.4943C30.2784 11.3031 31.7148 9.85531 31.7148 8.08261C31.7205 6.30991 30.2784 4.86211 28.5 4.86211ZM28.5 9.16561H22.0476C21.4548 9.16561 20.976 8.68681 20.976 8.09401C20.976 7.50121 21.4548 7.02241 22.0476 7.02241H28.4943C29.0871 7.02241 29.5659 7.50121 29.5659 8.09401C29.5716 8.68681 29.0928 9.16561 28.5 9.16561ZM15.6066 7.01671C15.0138 7.01671 14.535 7.49551 14.535 8.08831C14.535 8.68111 15.0138 9.15991 15.6066 9.15991C16.1994 9.15991 16.6782 8.68111 16.6782 8.08831C16.6839 7.49551 16.1937 7.01671 15.6066 7.01671Z" fill="#0048BB"/>
<path d="M23.4042 39.216C23.6151 38.6403 23.7747 37.9563 23.7006 37.2609C23.6835 36.5484 23.484 35.8473 23.2389 35.1519C22.971 34.4736 22.6689 33.7782 22.3041 33.1398C21.945 32.4843 21.5631 31.8459 21.1755 31.2075C20.7822 30.5862 20.3889 29.9592 20.0013 29.3493L19.7163 28.8876C19.6308 28.7508 19.5567 28.6026 19.4712 28.4601L19.2318 28.0326C19.1634 27.8901 19.1121 27.7419 19.0551 27.5937C18.8043 27.0123 18.7131 26.4309 18.6618 25.8609C18.6846 25.308 18.7245 24.7551 18.924 24.282C19.095 23.8032 19.323 23.3757 19.5681 23.0166C19.8189 22.6632 20.0583 22.3611 20.2806 22.1331C20.7195 21.6657 21.0216 21.4377 21.0216 21.4377C21.0216 21.4377 20.6625 21.5574 20.0982 21.9108C19.8189 22.0932 19.4826 22.3269 19.1463 22.6575C18.8043 22.9881 18.4509 23.3985 18.1659 23.9343C17.8467 24.453 17.6757 25.1142 17.5788 25.8153C17.5503 26.5221 17.5788 27.2916 17.841 28.0041C17.898 28.1865 17.955 28.3746 18.0234 28.5513L18.2685 29.0757C18.3483 29.2524 18.4281 29.4291 18.525 29.6058L18.7986 30.0732C19.1748 30.7002 19.5567 31.3386 19.9386 31.977C20.3319 32.5983 20.7252 33.2196 21.0843 33.8352C21.4377 34.4508 21.7797 35.0436 22.059 35.6421C22.3041 36.2406 22.5492 36.822 22.629 37.3806C22.7487 37.9392 22.6974 38.4693 22.6176 38.9652C22.5492 39.2046 22.458 39.4269 22.3896 39.6492C22.2756 39.8544 22.173 40.0539 22.0647 40.242C21.8367 40.5954 21.5859 40.8975 21.3864 41.1483C20.9361 41.6043 20.6796 41.8836 20.6796 41.8836C20.6796 41.8836 21.0045 41.7069 21.5745 41.3649C21.8367 41.1654 22.173 40.926 22.5036 40.584C22.6575 40.4016 22.8285 40.2078 22.9995 39.9969C23.1192 39.7518 23.2731 39.4953 23.4042 39.216Z" fill="#0048BB"/>
<path d="M31.5211 39.216C31.732 38.6403 31.8916 37.9563 31.8175 37.2609C31.8004 36.5484 31.6009 35.8473 31.3558 35.1519C31.0879 34.4736 30.7858 33.7782 30.421 33.1398C30.0619 32.4843 29.6743 31.8459 29.2924 31.2075C28.8991 30.5862 28.5058 29.9592 28.1182 29.3493L27.8332 28.8876C27.7477 28.7508 27.6736 28.6026 27.5881 28.4601L27.3487 28.0326C27.2803 27.8901 27.229 27.7419 27.172 27.5937C26.9212 27.0123 26.83 26.4309 26.7787 25.8609C26.8015 25.308 26.8414 24.7551 27.0352 24.282C27.2062 23.8032 27.4342 23.3757 27.6793 23.0166C27.9301 22.6632 28.1695 22.3611 28.3918 22.1331C28.8307 21.6657 29.1328 21.4377 29.1328 21.4377C29.1328 21.4377 28.7737 21.5574 28.2094 21.9108C27.9301 22.0932 27.5938 22.3269 27.2575 22.6575C26.9155 22.9881 26.5621 23.3985 26.2771 23.9343C25.9579 24.453 25.7869 25.1142 25.69 25.8153C25.6615 26.5221 25.69 27.2916 25.9522 28.0041C26.0092 28.1865 26.0662 28.3746 26.1346 28.5513L26.3797 29.0757C26.4595 29.2524 26.5393 29.4234 26.6362 29.6058L26.9098 30.0732C27.286 30.7002 27.6679 31.3386 28.0498 31.977C28.4431 32.5983 28.8364 33.2196 29.1955 33.8352C29.5489 34.4508 29.8909 35.0436 30.1702 35.6421C30.4153 36.2406 30.6604 36.822 30.7402 37.3806C30.8599 37.9392 30.8086 38.4693 30.7288 38.9652C30.6604 39.2046 30.5692 39.4269 30.5008 39.6492C30.3868 39.8544 30.2842 40.0539 30.1759 40.242C29.9479 40.5954 29.6971 40.8975 29.4976 41.1483C29.0473 41.6043 28.7908 41.8836 28.7908 41.8836C28.7908 41.8836 29.1157 41.7069 29.6857 41.3649C29.9479 41.1654 30.2842 40.926 30.6148 40.584C30.7687 40.4016 30.9397 40.2078 31.1107 39.9969C31.2475 39.7518 31.39 39.4953 31.5211 39.216Z" fill="#0048BB"/>
<path d="M40.4358 37.2552C40.4187 36.5427 40.2192 35.8416 39.9741 35.1462C39.7062 34.4679 39.4041 33.7725 39.0393 33.1341C38.6802 32.4786 38.2926 31.8402 37.9107 31.2018C37.5174 30.5805 37.1241 29.9535 36.7365 29.3436L36.4515 28.8819C36.366 28.7451 36.2919 28.5969 36.2064 28.4544L35.967 28.0269C35.8986 27.8844 35.8473 27.7362 35.7903 27.588C35.5395 27.0066 35.4483 26.4252 35.397 25.8552C35.4198 25.3023 35.4597 24.7494 35.6592 24.2763C35.8302 23.7975 36.0582 23.37 36.3033 23.0109C36.5541 22.6575 36.7935 22.3554 37.0158 22.1274C37.4547 21.66 37.7568 21.432 37.7568 21.432C37.7568 21.432 37.3977 21.5517 36.8334 21.9051C36.5541 22.0875 36.2235 22.3212 35.8815 22.6518C35.5395 22.9824 35.1861 23.3928 34.9011 23.9286C34.5819 24.4473 34.4109 25.1085 34.314 25.8096C34.2855 26.5164 34.314 27.2859 34.5762 27.9984C34.6332 28.1808 34.6902 28.3689 34.7586 28.5456L35.0037 29.07C35.0835 29.2467 35.1633 29.4234 35.2602 29.6001L35.5338 30.0675C35.91 30.6945 36.2919 31.3329 36.6738 31.9713C37.0671 32.5926 37.4604 33.2139 37.8195 33.8295C38.1729 34.4451 38.5149 35.0379 38.7942 35.6364C39.0393 36.2349 39.2844 36.8163 39.3642 37.3749C39.4839 37.9335 39.4326 38.4636 39.3528 38.9595C39.2844 39.1989 39.1932 39.4212 39.1248 39.6435C39.0108 39.8487 38.9082 40.0482 38.7999 40.2363C38.5719 40.5897 38.3211 40.8918 38.1216 41.1426C37.6713 41.5986 37.4148 41.8779 37.4148 41.8779C37.4148 41.8779 37.7397 41.7012 38.3097 41.3592C38.5719 41.1597 38.9082 40.9203 39.2388 40.5783C39.3927 40.3959 39.5637 40.2021 39.7347 39.9912C39.8715 39.7518 40.014 39.501 40.1451 39.216C40.3503 38.6403 40.5099 37.962 40.4358 37.2552Z" fill="#0048BB"/>
<path d="M16.7523 44.3175H41.2737V45.9591H16.7523V44.3175Z" fill="#0048BB"/>
</svg>
