<svg width="99" height="97" viewBox="0 0 99 97" fill="none" xmlns="http://www.w3.org/2000/svg">
<rect width="99" height="96.0226" rx="9" fill="white"/>
<path d="M35.5231 28.9088C35.0239 28.9088 34.6207 29.312 34.6207 29.8112C34.6207 30.3104 35.0239 30.7136 35.5231 30.7136C36.0223 30.7136 36.4255 30.3104 36.4255 29.8112C36.4255 29.312 36.0223 28.9088 35.5231 28.9088ZM65.3791 23.48H34.6207C32.6191 23.48 31.0063 25.1024 31.0063 27.0944V66.9008C31.0063 68.9024 32.6287 70.5152 34.6207 70.5152H65.3791C67.3807 70.5152 68.9935 68.8928 68.9935 66.9008V27.0944C68.9935 25.1024 67.3807 23.48 65.3791 23.48ZM58.1407 68.7152H34.6159C33.6175 68.7152 32.8063 67.9088 32.8063 66.9056V36.1472H67.1839V66.9056C67.1839 67.9088 66.3775 68.7152 65.3743 68.7152H63.5695M67.1839 34.3328H32.8111V27.0944C32.8111 26.0912 33.6175 25.2848 34.6207 25.2848H65.3791C66.3775 25.2848 67.1887 26.0912 67.1887 27.0944L67.1839 34.3328ZM49.9999 27.0944H44.5663C43.0639 27.0944 41.8543 28.3136 41.8543 29.8064C41.8543 31.304 43.0687 32.5184 44.5663 32.5184H49.9951C51.4975 32.5184 52.7071 31.2992 52.7071 29.8064C52.7119 28.3136 51.4975 27.0944 49.9999 27.0944ZM49.9999 30.7184H44.5663C44.0671 30.7184 43.6639 30.3152 43.6639 29.816C43.6639 29.3168 44.0671 28.9136 44.5663 28.9136H49.9951C50.4943 28.9136 50.8975 29.3168 50.8975 29.816C50.9023 30.3152 50.4991 30.7184 49.9999 30.7184ZM39.1423 28.9088C38.6431 28.9088 38.2399 29.312 38.2399 29.8112C38.2399 30.3104 38.6431 30.7136 39.1423 30.7136C39.6415 30.7136 40.0447 30.3104 40.0447 29.8112C40.0495 29.312 39.6367 28.9088 39.1423 28.9088Z" fill="#0048BB"/>
<path d="M45.7087 56.024C45.8863 55.5392 46.0207 54.9632 45.9583 54.3776C45.9439 53.7776 45.7759 53.1872 45.5695 52.6016C45.3439 52.0304 45.0895 51.4448 44.7823 50.9072C44.4799 50.3552 44.1583 49.8176 43.8319 49.28C43.5007 48.7568 43.1695 48.2288 42.8431 47.7152L42.6031 47.3264C42.5311 47.2112 42.4687 47.0864 42.3967 46.9664L42.1951 46.6064C42.1375 46.4864 42.0943 46.3616 42.0463 46.2368C41.8351 45.7472 41.7583 45.2576 41.7151 44.7776C41.7343 44.312 41.7679 43.8464 41.9359 43.448C42.0799 43.0448 42.2719 42.6848 42.4783 42.3824C42.6895 42.0848 42.8911 41.8304 43.0783 41.6384C43.4479 41.2448 43.7023 41.0528 43.7023 41.0528C43.7023 41.0528 43.3999 41.1536 42.9247 41.4512C42.6895 41.6048 42.4063 41.8016 42.1231 42.08C41.8351 42.3584 41.5375 42.704 41.2975 43.1552C41.0287 43.592 40.8847 44.1488 40.8031 44.7392C40.7791 45.3344 40.8031 45.9824 41.0239 46.5824C41.0719 46.736 41.1199 46.8944 41.1775 47.0432L41.3839 47.4848C41.4511 47.6336 41.5183 47.7824 41.5999 47.9312L41.8303 48.3248C42.1471 48.8528 42.4687 49.3904 42.7903 49.928C43.1215 50.4512 43.4527 50.9744 43.7551 51.4928C44.0527 52.0112 44.3407 52.5104 44.5759 53.0144C44.7823 53.5184 44.9887 54.008 45.0559 54.4784C45.1567 54.9488 45.1135 55.3952 45.0463 55.8128C44.9887 56.0144 44.9119 56.2016 44.8543 56.3888C44.7583 56.5616 44.6719 56.7296 44.5807 56.888C44.3887 57.1856 44.1775 57.44 44.0095 57.6512C43.6303 58.0352 43.4143 58.2704 43.4143 58.2704C43.4143 58.2704 43.6879 58.1216 44.1679 57.8336C44.3887 57.6656 44.6719 57.464 44.9503 57.176C45.0799 57.0224 45.2239 56.8592 45.3679 56.6816C45.4687 56.4752 45.5983 56.2592 45.7087 56.024Z" fill="#0048BB"/>
<path d="M52.5438 56.024C52.7214 55.5392 52.8558 54.9632 52.7934 54.3776C52.779 53.7776 52.611 53.1872 52.4046 52.6016C52.179 52.0304 51.9246 51.4448 51.6174 50.9072C51.315 50.3552 50.9886 49.8176 50.667 49.28C50.3358 48.7568 50.0046 48.2288 49.6782 47.7152L49.4382 47.3264C49.3662 47.2112 49.3038 47.0864 49.2318 46.9664L49.0302 46.6064C48.9726 46.4864 48.9294 46.3616 48.8814 46.2368C48.6702 45.7472 48.5934 45.2576 48.5502 44.7776C48.5694 44.312 48.603 43.8464 48.7662 43.448C48.9102 43.0448 49.1022 42.6848 49.3086 42.3824C49.5198 42.0848 49.7214 41.8304 49.9086 41.6384C50.2782 41.2448 50.5326 41.0528 50.5326 41.0528C50.5326 41.0528 50.2302 41.1536 49.755 41.4512C49.5198 41.6048 49.2366 41.8016 48.9534 42.08C48.6654 42.3584 48.3678 42.704 48.1278 43.1552C47.859 43.592 47.715 44.1488 47.6334 44.7392C47.6094 45.3344 47.6334 45.9824 47.8542 46.5824C47.9022 46.736 47.9502 46.8944 48.0078 47.0432L48.2142 47.4848C48.2814 47.6336 48.3486 47.7776 48.4302 47.9312L48.6606 48.3248C48.9774 48.8528 49.299 49.3904 49.6206 49.928C49.9518 50.4512 50.283 50.9744 50.5854 51.4928C50.883 52.0112 51.171 52.5104 51.4062 53.0144C51.6126 53.5184 51.819 54.008 51.8862 54.4784C51.987 54.9488 51.9438 55.3952 51.8766 55.8128C51.819 56.0144 51.7422 56.2016 51.6846 56.3888C51.5886 56.5616 51.5022 56.7296 51.411 56.888C51.219 57.1856 51.0078 57.44 50.8398 57.6512C50.4606 58.0352 50.2446 58.2704 50.2446 58.2704C50.2446 58.2704 50.5182 58.1216 50.9982 57.8336C51.219 57.6656 51.5022 57.464 51.7806 57.176C51.9102 57.0224 52.0542 56.8592 52.1982 56.6816C52.3134 56.4752 52.4334 56.2592 52.5438 56.024Z" fill="#0048BB"/>
<path d="M60.0511 54.3728C60.0367 53.7728 59.8687 53.1824 59.6623 52.5968C59.4367 52.0256 59.1823 51.44 58.8751 50.9024C58.5727 50.3504 58.2463 49.8128 57.9247 49.2752C57.5935 48.752 57.2623 48.224 56.9359 47.7104L56.6959 47.3216C56.6239 47.2064 56.5615 47.0816 56.4895 46.9616L56.2879 46.6016C56.2303 46.4816 56.1871 46.3568 56.1391 46.232C55.9279 45.7424 55.8511 45.2528 55.8079 44.7728C55.8271 44.3072 55.8607 43.8416 56.0287 43.4432C56.1727 43.04 56.3647 42.68 56.5711 42.3776C56.7823 42.08 56.9839 41.8256 57.1711 41.6336C57.5407 41.24 57.7951 41.048 57.7951 41.048C57.7951 41.048 57.4927 41.1488 57.0175 41.4464C56.7823 41.6 56.5039 41.7968 56.2159 42.0752C55.9279 42.3536 55.6303 42.6992 55.3903 43.1504C55.1215 43.5872 54.9775 44.144 54.8959 44.7344C54.8719 45.3296 54.8959 45.9776 55.1167 46.5776C55.1647 46.7312 55.2127 46.8896 55.2703 47.0384L55.4767 47.48C55.5439 47.6288 55.6111 47.7776 55.6927 47.9264L55.9231 48.32C56.2399 48.848 56.5615 49.3856 56.8831 49.9232C57.2143 50.4464 57.5455 50.9696 57.8479 51.488C58.1455 52.0064 58.4335 52.5056 58.6687 53.0096C58.8751 53.5136 59.0815 54.0032 59.1487 54.4736C59.2495 54.944 59.2063 55.3904 59.1391 55.808C59.0815 56.0096 59.0047 56.1968 58.9471 56.384C58.8511 56.5568 58.7647 56.7248 58.6735 56.8832C58.4815 57.1808 58.2703 57.4352 58.1023 57.6464C57.7231 58.0304 57.5071 58.2656 57.5071 58.2656C57.5071 58.2656 57.7807 58.1168 58.2607 57.8288C58.4815 57.6608 58.7647 57.4592 59.0431 57.1712C59.1727 57.0176 59.3167 56.8544 59.4607 56.6768C59.5759 56.4752 59.6959 56.264 59.8063 56.024C59.9791 55.5392 60.1135 54.968 60.0511 54.3728Z" fill="#0048BB"/>
<path d="M40.1072 60.32H60.7568V61.7024H40.1072V60.32Z" fill="#0048BB"/>
</svg>
