<svg width="156" height="42" viewBox="0 0 156 42" fill="none" xmlns="http://www.w3.org/2000/svg">
<path d="M0.578125 41V0.999999H11.4375V32.25H27.6094V41H0.578125ZM69.1914 21C69.1914 25.4531 68.3255 29.2096 66.5938 32.2695C64.862 35.3164 62.5247 37.6276 59.582 39.2031C56.6393 40.7656 53.3581 41.5469 49.7383 41.5469C46.0924 41.5469 42.7982 40.7591 39.8555 39.1836C36.9258 37.5951 34.5951 35.2773 32.8633 32.2305C31.1445 29.1706 30.2852 25.4271 30.2852 21C30.2852 16.5469 31.1445 12.7969 32.8633 9.75C34.5951 6.6901 36.9258 4.3789 39.8555 2.8164C42.7982 1.24088 46.0924 0.453124 49.7383 0.453124C53.3581 0.453124 56.6393 1.24088 59.582 2.8164C62.5247 4.3789 64.862 6.6901 66.5938 9.75C68.3255 12.7969 69.1914 16.5469 69.1914 21ZM58.0195 21C58.0195 18.6042 57.7005 16.5859 57.0625 14.9453C56.4375 13.2917 55.5065 12.0417 54.2695 11.1953C53.0456 10.3359 51.5352 9.90625 49.7383 9.90625C47.9414 9.90625 46.4245 10.3359 45.1875 11.1953C43.9635 12.0417 43.0326 13.2917 42.3945 14.9453C41.7695 16.5859 41.457 18.6042 41.457 21C41.457 23.3958 41.7695 25.4206 42.3945 27.0742C43.0326 28.7148 43.9635 29.9648 45.1875 30.8242C46.4245 31.6706 47.9414 32.0937 49.7383 32.0937C51.5352 32.0937 53.0456 31.6706 54.2695 30.8242C55.5065 29.9648 56.4375 28.7148 57.0625 27.0742C57.7005 25.4206 58.0195 23.3958 58.0195 21ZM100.192 14.2031C100.023 13.513 99.7562 12.9076 99.3916 12.3867C99.027 11.8529 98.5713 11.4036 98.0244 11.0391C97.4906 10.6615 96.8656 10.3815 96.1494 10.1992C95.4463 10.0039 94.6716 9.90625 93.8252 9.90625C92.0023 9.90625 90.4463 10.3424 89.1572 11.2148C87.8812 12.0872 86.9046 13.3437 86.2275 14.9844C85.5635 16.625 85.2314 18.6042 85.2314 20.9219C85.2314 23.2656 85.5505 25.2708 86.1885 26.9375C86.8265 28.6042 87.777 29.8802 89.04 30.7656C90.3031 31.651 91.8721 32.0937 93.7471 32.0937C95.4007 32.0937 96.7744 31.8529 97.8682 31.3711C98.9749 30.8893 99.8018 30.2057 100.349 29.3203C100.896 28.4349 101.169 27.3932 101.169 26.1953L103.044 26.3906H93.9033V18.6562H111.638V24.2031C111.638 27.849 110.863 30.9674 109.313 33.5586C107.777 36.1367 105.655 38.1159 102.946 39.4961C100.251 40.8633 97.1585 41.5469 93.6689 41.5469C89.7757 41.5469 86.3577 40.7201 83.415 39.0664C80.4723 37.4128 78.1742 35.056 76.5205 31.9961C74.8799 28.9362 74.0596 25.2969 74.0596 21.0781C74.0596 17.7708 74.5609 14.8411 75.5635 12.2891C76.5791 9.73698 77.9854 7.58203 79.7822 5.82422C81.5791 4.05338 83.6559 2.71875 86.0127 1.82031C88.3695 0.908852 90.8955 0.453124 93.5908 0.453124C95.9606 0.453124 98.1611 0.791666 100.192 1.46875C102.237 2.13281 104.04 3.08333 105.603 4.32031C107.178 5.54427 108.448 6.99609 109.411 8.67578C110.375 10.3555 110.961 12.1979 111.169 14.2031H100.192ZM155.451 21C155.451 25.4531 154.585 29.2096 152.854 32.2695C151.122 35.3164 148.785 37.6276 145.842 39.2031C142.899 40.7656 139.618 41.5469 135.998 41.5469C132.352 41.5469 129.058 40.7591 126.115 39.1836C123.186 37.5951 120.855 35.2773 119.123 32.2305C117.404 29.1706 116.545 25.4271 116.545 21C116.545 16.5469 117.404 12.7969 119.123 9.75C120.855 6.6901 123.186 4.3789 126.115 2.8164C129.058 1.24088 132.352 0.453124 135.998 0.453124C139.618 0.453124 142.899 1.24088 145.842 2.8164C148.785 4.3789 151.122 6.6901 152.854 9.75C154.585 12.7969 155.451 16.5469 155.451 21ZM144.279 21C144.279 18.6042 143.96 16.5859 143.322 14.9453C142.697 13.2917 141.766 12.0417 140.529 11.1953C139.305 10.3359 137.795 9.90625 135.998 9.90625C134.201 9.90625 132.684 10.3359 131.447 11.1953C130.223 12.0417 129.292 13.2917 128.654 14.9453C128.029 16.5859 127.717 18.6042 127.717 21C127.717 23.3958 128.029 25.4206 128.654 27.0742C129.292 28.7148 130.223 29.9648 131.447 30.8242C132.684 31.6706 134.201 32.0937 135.998 32.0937C137.795 32.0937 139.305 31.6706 140.529 30.8242C141.766 29.9648 142.697 28.7148 143.322 27.0742C143.96 25.4206 144.279 23.3958 144.279 21Z" fill="white"/>
</svg>
