<svg width="99" height="97" viewBox="0 0 99 97" fill="none" xmlns="http://www.w3.org/2000/svg">
<rect width="99" height="96.0226" rx="9" fill="white"/>
<path d="M31.686 24.6739C31.6361 24.7838 31.5862 25.1645 31.5862 25.5245V26.185H30.4947C29.634 26.185 29.3638 26.2152 29.2438 26.3453C29.1036 26.4854 29.0835 28.367 29.0835 45.5904C29.0835 66.6466 29.0436 65.1955 29.7041 66.2462C30.1347 66.9168 30.9051 67.5672 31.5454 67.8077C31.8454 67.9277 32.1559 68.0179 32.2361 68.0179C32.346 68.0179 32.3763 68.3381 32.406 69.6691C32.4262 71.0102 32.466 71.3506 32.586 71.4206C32.7862 71.5507 35.4881 71.5507 35.6883 71.4206C35.8083 71.3506 35.8486 71.0203 35.8683 69.7195L35.8985 68.1182H50.0095H64.1105V69.6994C64.1105 70.8 64.1503 71.3208 64.2305 71.4005C64.3107 71.4806 64.8007 71.5205 65.7718 71.5205C66.9329 71.5205 67.2228 71.4902 67.3529 71.3602C67.483 71.2301 67.5132 70.9296 67.5132 69.6086C67.5132 68.0275 67.5132 68.0174 67.7431 68.0174C68.0835 68.0174 69.1443 67.477 69.5945 67.0666C69.8148 66.8664 70.135 66.4958 70.3049 66.2357C70.9553 65.2248 70.9155 66.4958 70.9155 45.5698C70.9155 32.6698 70.8857 26.5051 70.8156 26.375C70.7158 26.2051 70.5953 26.185 69.5647 26.185H68.4137V25.5245C68.4137 24.3634 69.1145 24.4838 62.0287 24.4838C57.355 24.4838 55.8137 24.5141 55.7239 24.6038C55.6539 24.6739 55.6039 25.0243 55.6039 25.4544V26.185H49.9899H44.3854L44.4055 25.4942C44.4257 25.0339 44.3955 24.7536 44.3052 24.6437C44.1852 24.5035 43.5545 24.4834 37.9803 24.4834C31.9659 24.4834 31.7859 24.4934 31.686 24.6739ZM43.5751 25.7544L43.5449 26.1346L38.0206 26.1648L32.4862 26.185V25.7846V25.3843H38.0503H43.6049L43.5751 25.7544ZM67.5137 25.7846V26.185L61.9894 26.1648L56.455 26.1346L56.4247 25.7544L56.395 25.3843H61.9491H67.5132L67.5137 25.7846ZM70.0155 30.0379V32.9904H49.9999H29.9844V30.0379V27.0854H49.9999H70.0155V30.0379ZM69.9953 49.523L69.9651 65.065L69.7548 65.5152C69.4846 66.0758 68.9239 66.6461 68.3235 66.9365L67.8631 67.1669L50.1295 67.1966C32.4559 67.2168 32.3959 67.2168 31.8454 67.0166C31.1849 66.7666 30.5446 66.1661 30.2542 65.5354L30.0339 65.065L30.0036 49.523L29.9835 33.9912H49.9999H70.0155L69.9953 49.523ZM34.9884 69.3682V70.619H34.1379H33.2873V69.3682V68.1173H34.1379H34.9884V69.3682ZM66.6127 69.3682V70.619H65.7622H64.9116V69.3682V68.1173H65.7622H66.6127V69.3682Z" fill="#0048BB" stroke="#0048BB" stroke-width="0.4"/>
<path d="M34.7383 28.5768C33.6775 29.2171 33.5076 30.4584 34.3581 31.259C35.2188 32.0798 36.45 31.8494 36.99 30.7786C37.4104 29.9578 37.06 28.9973 36.1692 28.5269C35.789 28.3267 35.0983 28.3565 34.7383 28.5768ZM36.089 29.4874C36.3991 29.7974 36.3592 30.4181 36.029 30.6782C35.4588 31.1285 34.6879 30.7882 34.6879 30.0778C34.6879 29.5574 34.9581 29.2872 35.4885 29.2872C35.7588 29.2872 35.9589 29.3573 36.089 29.4874Z" fill="#0048BB" stroke="#0048BB" stroke-width="0.5"/>
<path d="M39.8921 28.5667C39.3617 28.8571 38.9714 29.4672 38.9714 30.0077C38.9714 30.5678 39.1817 30.9782 39.6521 31.3685C40.3524 31.9488 41.213 31.8787 41.8236 31.1986C42.5642 30.3778 42.4841 29.377 41.6335 28.7266C41.1631 28.3666 40.3927 28.2965 39.8921 28.5667ZM41.2932 29.5574C41.7238 30.108 41.3431 30.8885 40.6428 30.8885C40.1426 30.8885 39.8422 30.5981 39.8422 30.108C39.8422 29.5474 40.1023 29.2872 40.6529 29.2872C41.0028 29.2872 41.1228 29.3371 41.2932 29.5574Z" fill="#0048BB" stroke="#0048BB" stroke-width="0.5"/>
<path d="M46.317 28.5067C46.2369 28.5869 46.197 29.087 46.197 30.108C46.197 31.4592 46.2172 31.5893 46.3871 31.6891C46.5172 31.7491 47.8482 31.789 50.05 31.789C52.2517 31.789 53.5828 31.7491 53.7129 31.6891C53.8828 31.5893 53.9029 31.4592 53.9029 30.108C53.9029 29.087 53.8626 28.5869 53.7829 28.5067C53.613 28.3363 46.4874 28.3363 46.317 28.5067ZM53.0025 30.048V30.8885H50.05H47.0975V30.0581V29.2373L50.05 29.2171L53.0025 29.207V30.048Z" fill="#0048BB" stroke="#0048BB" stroke-width="0.5"/>
<path d="M58.6264 28.5566C58.1963 28.7669 57.8359 29.207 57.7058 29.6674C57.4058 30.7982 58.6264 32.0194 59.7275 31.6987C60.8882 31.3483 61.3888 30.0475 60.7183 29.1168C60.2176 28.4366 59.3474 28.1966 58.6264 28.5566ZM59.9378 29.4576C60.1879 29.748 60.2383 30.1382 60.0679 30.4685C59.6978 31.1789 58.6768 30.9888 58.5467 30.1882C58.4565 29.6578 58.7867 29.2877 59.3474 29.2877C59.6272 29.2872 59.8274 29.3472 59.9378 29.4576Z" fill="#0048BB" stroke="#0048BB" stroke-width="0.5"/>
<path d="M63.7606 28.5768C62.7195 29.2075 62.5097 30.3682 63.2902 31.1789C63.7807 31.6891 64.351 31.8696 64.9318 31.6992C65.7526 31.4491 66.3228 30.5482 66.1726 29.7475C66.0924 29.3371 65.622 28.7467 65.202 28.5264C64.8113 28.3267 64.1211 28.3464 63.7606 28.5768ZM65.1118 29.4874C65.4022 29.7778 65.382 30.3278 65.0619 30.6384C64.5617 31.1486 63.7107 30.8083 63.7107 30.0979C63.7107 29.5277 63.931 29.2872 64.471 29.2872C64.7815 29.2872 64.9716 29.3472 65.1118 29.4874Z" fill="#0048BB" stroke="#0048BB" stroke-width="0.5"/>
<path d="M32.4767 35.8325C32.2064 36.4229 32.9072 37.6339 33.7275 38.004C34.1178 38.184 34.7984 38.1941 49.9501 38.1941C65.0317 38.1941 65.7824 38.184 66.1626 38.004C67.2834 37.4938 67.9741 35.712 67.0933 35.6122C66.7832 35.5723 66.513 35.8925 66.513 36.2928C66.513 36.433 66.4429 36.6533 66.3527 36.7834C65.9725 37.3138 66.7429 37.2936 49.9299 37.2936C35.2885 37.2936 34.3179 37.2835 33.9877 37.1136C33.6176 36.9336 33.4472 36.6634 33.3171 36.0427C33.2471 35.6822 33.2072 35.6424 32.9168 35.6126C32.6466 35.5819 32.5664 35.6222 32.4767 35.8325Z" fill="#0048BB" stroke="#0048BB" stroke-width="0.5"/>
<path d="M32.5864 39.9955C32.3862 40.1957 32.3862 40.3258 32.3862 52.2149C32.3862 60.301 32.4165 64.2941 32.4861 64.4242C32.596 64.6142 32.8965 64.6142 49.9494 64.6142C67.0029 64.6142 67.3029 64.6142 67.4128 64.4242C67.4829 64.2941 67.5131 60.301 67.5131 52.2149C67.5131 40.3258 67.5131 40.1957 67.313 39.9955C67.1128 39.7954 66.9827 39.7954 49.9494 39.7954C32.9166 39.7954 32.7866 39.7954 32.5864 39.9955ZM66.6126 44.5493V48.4022H49.9499H33.2867V44.6194C33.2867 42.5376 33.317 40.7962 33.3568 40.7664C33.387 40.7266 40.8928 40.6963 50.0195 40.6963H66.6126V44.5493ZM66.6126 52.2552V55.2077L49.9797 55.1875L33.3366 55.1573L33.3064 52.225L33.2862 49.3027H49.9489H66.6126V52.2552ZM66.593 59.9309L66.5627 63.7637H49.9499H33.3371L33.3069 59.9309L33.2867 56.1077H49.9494H66.6126L66.593 59.9309Z" fill="#0048BB" stroke="#0048BB" stroke-width="0.5"/>
</svg>
