<svg width="57" height="57" viewBox="0 0 57 57" fill="none" xmlns="http://www.w3.org/2000/svg">
<path d="M6.75222 0.800259C6.69294 0.930786 6.63366 1.3828 6.63366 1.8103V2.59462H5.33748C4.31547 2.59462 3.99456 2.63053 3.85206 2.785C3.68562 2.95144 3.66168 5.18584 3.66168 25.6386C3.66168 50.6428 3.61437 48.9197 4.39869 50.1674C4.90998 50.9637 5.82483 51.736 6.58521 52.0216C6.94146 52.1641 7.31025 52.2713 7.40544 52.2713C7.53597 52.2713 7.57188 52.6514 7.60722 54.2321C7.63116 55.8246 7.67847 56.2288 7.82097 56.312C8.05866 56.4665 11.2672 56.4665 11.5049 56.312C11.6474 56.2288 11.6953 55.8366 11.7186 54.2919L11.7545 52.3904H28.5114H45.2563V54.268C45.2563 55.575 45.3036 56.1934 45.3988 56.288C45.494 56.3832 46.076 56.4305 47.2291 56.4305C48.6079 56.4305 48.9522 56.3946 49.1066 56.2402C49.2611 56.0857 49.297 55.7289 49.297 54.1602C49.297 52.2827 49.297 52.2707 49.57 52.2707C49.9742 52.2707 51.2339 51.6289 51.7685 51.1415C52.0302 50.9038 52.4104 50.4638 52.6121 50.1548C53.3845 48.9544 53.3372 50.4638 53.3372 25.6141C53.3372 10.2953 53.3018 2.9748 53.2186 2.82033C53.1001 2.61855 52.957 2.59462 51.7332 2.59462H50.3663V1.8103C50.3663 0.431465 51.1985 0.574532 42.7842 0.574532C37.2341 0.574532 35.4038 0.610439 35.2972 0.71703C35.214 0.800251 35.1547 1.21636 35.1547 1.72708V2.59462H28.488H21.8327L21.8566 1.77438C21.8806 1.22775 21.8447 0.894878 21.7375 0.764347C21.595 0.597908 20.846 0.573967 14.2266 0.573967C7.08453 0.573967 6.87078 0.585938 6.75222 0.800259ZM20.8705 2.08332L20.8346 2.53476L14.2745 2.57067L7.70241 2.59462V2.11923V1.64385H14.3098H20.9059L20.8705 2.08332ZM49.2976 2.11923V2.59462L42.7375 2.57067L36.1654 2.53476L36.1294 2.08332L36.0941 1.64385H42.6896H49.297L49.2976 2.11923ZM52.2684 7.17V10.6761H28.5H4.73157V7.17V3.66393H28.5H52.2684V7.17ZM52.2445 30.3086L52.2086 48.7646L51.9589 49.2993C51.638 49.965 50.9722 50.6422 50.2592 50.987L49.7126 51.2606L28.6539 51.296C7.6665 51.3199 7.59525 51.3199 6.94146 51.0822C6.15714 50.7853 5.39676 50.0722 5.05191 49.3232L4.79028 48.7646L4.75437 30.3086L4.73043 11.8645H28.5H52.2684L52.2445 30.3086ZM10.6738 53.8747V55.3601H9.66378H8.65374V53.8747V52.3892H9.66378H10.6738V53.8747ZM48.2277 53.8747V55.3601H47.2177H46.2076V53.8747V52.3892H47.2177H48.2277V53.8747Z" fill="#0048BB" stroke="#0048BB" stroke-width="0.4"/>
<path d="M10.3768 5.43493C9.11715 6.19531 8.91537 7.66933 9.92541 8.62009C10.9474 9.59479 12.4095 9.32119 13.0507 8.04952C13.55 7.07482 13.1339 5.93425 12.076 5.37565C11.6246 5.13796 10.8043 5.1733 10.3768 5.43493ZM11.9808 6.51622C12.349 6.88444 12.3017 7.62145 11.9096 7.93039C11.2324 8.46505 10.317 8.06092 10.317 7.21732C10.317 6.59944 10.6379 6.27853 11.2678 6.27853C11.5887 6.27853 11.8264 6.36175 11.9808 6.51622Z" fill="#0048BB" stroke="#0048BB" stroke-width="0.5"/>
<path d="M16.4969 5.42292C15.8671 5.76777 15.4037 6.49225 15.4037 7.13407C15.4037 7.79926 15.6533 8.28661 16.2119 8.75002C17.0436 9.43915 18.0656 9.35592 18.7906 8.54823C19.6701 7.57353 19.5749 6.38509 18.5649 5.61274C18.0063 5.18524 17.0915 5.10201 16.4969 5.42292ZM18.1608 6.59941C18.6721 7.2532 18.2201 8.18002 17.3884 8.18002C16.7945 8.18002 16.4377 7.83517 16.4377 7.2532C16.4377 6.58744 16.7466 6.2785 17.4004 6.2785C17.8159 6.2785 17.9584 6.33778 18.1608 6.59941Z" fill="#0048BB" stroke="#0048BB" stroke-width="0.5"/>
<path d="M24.1264 5.35173C24.0312 5.44692 23.9839 6.04086 23.9839 7.25325C23.9839 8.8578 24.0078 9.01227 24.2096 9.13083C24.3641 9.20208 25.9447 9.24939 28.5593 9.24939C31.1739 9.24939 32.7545 9.20208 32.9089 9.13083C33.1107 9.01227 33.1347 8.8578 33.1347 7.25325C33.1347 6.04086 33.0868 5.44692 32.9922 5.35173C32.7904 5.14938 24.3287 5.14938 24.1264 5.35173ZM32.0653 7.182V8.18007H28.5593H25.0532V7.19397V6.21927L28.5593 6.19533L32.0653 6.18336V7.182Z" fill="#0048BB" stroke="#0048BB" stroke-width="0.5"/>
<path d="M38.744 5.41099C38.2333 5.66065 37.8052 6.18334 37.6508 6.72997C37.2945 8.07289 38.744 9.52297 40.0516 9.14221C41.4299 8.72611 42.0244 7.18141 41.2281 6.07618C40.6336 5.26849 39.6002 4.98349 38.744 5.41099ZM40.3013 6.48088C40.5982 6.82573 40.6581 7.28914 40.4557 7.6813C40.0163 8.5249 38.8039 8.29918 38.6494 7.34842C38.5422 6.71857 38.9344 6.2791 39.6002 6.2791C39.9325 6.27853 40.1702 6.34978 40.3013 6.48088Z" fill="#0048BB" stroke="#0048BB" stroke-width="0.5"/>
<path d="M44.8408 5.43494C43.6044 6.18392 43.3554 7.56218 44.2822 8.52491C44.8647 9.13082 45.5419 9.34514 46.2316 9.14279C47.2063 8.84582 47.8834 7.77593 47.705 6.82517C47.6098 6.33782 47.0512 5.63672 46.5525 5.37509C46.0885 5.13797 45.2688 5.16134 44.8408 5.43494ZM46.4453 6.51623C46.7902 6.86108 46.7662 7.5143 46.386 7.88309C45.7921 8.489 44.7815 8.08487 44.7815 7.24127C44.7815 6.56411 45.0431 6.27854 45.6844 6.27854C46.0532 6.27854 46.2789 6.34979 46.4453 6.51623Z" fill="#0048BB" stroke="#0048BB" stroke-width="0.5"/>
<path d="M7.69102 14.0511C7.37011 14.7522 8.20231 16.1903 9.17644 16.6297C9.63985 16.8435 10.4481 16.8555 28.4407 16.8555C46.3501 16.8555 47.2416 16.8435 47.6931 16.6297C49.024 16.0238 49.8442 13.908 48.7983 13.7894C48.4301 13.7421 48.1091 14.1223 48.1091 14.5977C48.1091 14.7641 48.0259 15.0258 47.9188 15.1802C47.4673 15.8101 48.3822 15.7861 28.4168 15.7861C11.0301 15.7861 9.87754 15.7742 9.48538 15.5724C9.04591 15.3586 8.84356 15.0377 8.68909 14.3007C8.60587 13.8727 8.55856 13.8253 8.21371 13.79C7.8928 13.7535 7.79761 13.8014 7.69102 14.0511Z" fill="#0048BB" stroke="#0048BB" stroke-width="0.5"/>
<path d="M7.82155 18.9946C7.58386 19.2323 7.58386 19.3868 7.58386 33.5051C7.58386 43.1073 7.61977 47.8492 7.70242 48.0036C7.83295 48.2294 8.18977 48.2294 28.4402 48.2294C48.6911 48.2294 49.0474 48.2294 49.1779 48.0036C49.2611 47.8492 49.297 43.1073 49.297 33.5051C49.297 19.3868 49.297 19.2323 49.0593 18.9946C48.8217 18.757 48.6672 18.757 28.4402 18.757C8.21371 18.757 8.05924 18.757 7.82155 18.9946ZM48.2277 24.4022V28.9776H28.4407H8.65318V24.4855C8.65318 22.0134 8.68909 19.9454 8.7364 19.9101C8.77231 19.8628 17.6854 19.8268 28.5234 19.8268H48.2277V24.4022ZM48.2277 33.553V37.0591L28.4761 37.0351L8.71246 36.9992L8.67655 33.5171L8.65261 30.0469H28.4396H48.2277V33.553ZM48.2043 42.6679L48.1684 47.2193H28.4407H8.71303L8.67712 42.6679L8.65318 38.1278H28.4402H48.2277L48.2043 42.6679Z" fill="#0048BB" stroke="#0048BB" stroke-width="0.5"/>
</svg>
