<svg width="54" height="54" viewBox="0 0 54 54" fill="none" xmlns="http://www.w3.org/2000/svg">
<g clip-path="url(#clip0_5_44)">
<path d="M39.123 41.067C38.8158 41.0694 38.5117 41.0049 38.232 40.878C37.6718 40.6419 37.2261 40.1962 36.99 39.636L35.964 37.152C35.9114 37.0221 35.9114 36.8769 35.964 36.747C35.9911 36.6802 36.0314 36.6194 36.0824 36.5684C36.1334 36.5174 36.1941 36.4772 36.261 36.45C36.3292 36.4194 36.4024 36.4011 36.477 36.396C36.5878 36.3964 36.6959 36.4301 36.7874 36.4927C36.8789 36.5553 36.9494 36.6439 36.99 36.747L38.016 39.231C38.1433 39.5205 38.3745 39.7517 38.664 39.879C38.8118 39.9298 38.9667 39.9571 39.123 39.96C39.2797 39.9618 39.4353 39.9343 39.582 39.879L42.282 38.772C42.4279 38.7129 42.5605 38.6251 42.6718 38.5138C42.7831 38.4025 42.8709 38.2699 42.93 38.124C42.9974 37.9804 43.0324 37.8237 43.0324 37.665C43.0324 37.5063 42.9974 37.3496 42.93 37.206L41.904 34.722C41.8574 34.6017 41.8535 34.4692 41.8928 34.3464C41.9321 34.2235 42.0123 34.1179 42.12 34.047C43.8386 32.8954 45.3154 31.4186 46.467 29.7C46.5169 29.6242 46.5851 29.5622 46.6653 29.5197C46.7456 29.4772 46.8352 29.4557 46.926 29.457C47.0006 29.4621 47.0737 29.4804 47.142 29.511L49.626 30.537C49.7726 30.5923 49.9283 30.6198 50.085 30.618C50.3203 30.6167 50.5501 30.5472 50.7466 30.4177C50.9431 30.2883 51.0979 30.1046 51.192 29.889L52.326 27.189C52.3853 27.0455 52.4156 26.8916 52.4152 26.7363C52.4147 26.5811 52.3834 26.4274 52.3231 26.2843C52.2629 26.1411 52.1748 26.0114 52.0641 25.9025C51.9533 25.7936 51.8221 25.7078 51.678 25.65L49.194 24.624C49.0779 24.5721 48.9828 24.4826 48.924 24.3698C48.8652 24.2571 48.8461 24.1279 48.87 24.003C49.275 21.9801 49.275 19.8969 48.87 17.874C48.8414 17.7489 48.8583 17.6176 48.9176 17.5038C48.977 17.39 49.075 17.3011 49.194 17.253L51.678 16.227C51.8239 16.1679 51.9565 16.0801 52.0678 15.9688C52.1791 15.8575 52.2669 15.7249 52.326 15.579C52.3934 15.4354 52.4284 15.2787 52.4284 15.12C52.4284 14.9613 52.3934 14.8046 52.326 14.661L51.219 11.961C51.1599 11.8151 51.0721 11.6825 50.9608 11.5712C50.8495 11.4599 50.7169 11.3721 50.571 11.313C50.2744 11.2058 49.9496 11.2058 49.653 11.313L47.169 12.339C47.1019 12.3728 47.0281 12.3912 46.953 12.393C46.8625 12.3927 46.7735 12.3704 46.6935 12.328C46.6136 12.2857 46.5451 12.2246 46.494 12.15C45.3424 10.4313 43.8656 8.9546 42.147 7.80299C42.0403 7.73136 41.9627 7.62404 41.9281 7.50033C41.8934 7.37661 41.904 7.24459 41.958 7.12799L42.984 4.64399C43.1055 4.35005 43.1055 4.01993 42.984 3.72599C42.8658 3.44599 42.643 3.22318 42.363 3.10499L39.663 1.97099C39.4962 1.92176 39.3238 1.89453 39.15 1.88999C38.9147 1.89126 38.6848 1.96083 38.4883 2.09024C38.2918 2.21965 38.1371 2.40334 38.043 2.61899L37.017 5.10299C36.9717 5.2028 36.9 5.2883 36.8095 5.35018C36.7191 5.41207 36.6134 5.44797 36.504 5.45399H36.396C35.3811 5.26156 34.3509 5.16215 33.318 5.15699C32.294 5.16093 31.2725 5.26036 30.267 5.45399C30.213 5.45399 30.186 5.48099 30.132 5.48099C30.0246 5.48003 29.9202 5.44574 29.8331 5.38287C29.746 5.31999 29.6806 5.23163 29.646 5.12999L28.62 2.61899C28.5609 2.47306 28.4731 2.3405 28.3618 2.22918C28.2505 2.11786 28.1179 2.03006 27.972 1.97099C27.8241 1.92022 27.6693 1.89288 27.513 1.88999C27.3563 1.88823 27.2006 1.9157 27.054 1.97099L24.354 3.07799C24.2103 3.1364 24.0796 3.22256 23.9692 3.33155C23.8589 3.44054 23.7711 3.57021 23.7109 3.71315C23.6507 3.85608 23.6193 4.00949 23.6185 4.16458C23.6176 4.31967 23.6474 4.4734 23.706 4.61699L24.732 7.10099C24.7785 7.22125 24.7825 7.35382 24.7432 7.47663C24.7039 7.59944 24.6237 7.70509 24.516 7.77599C22.7973 8.9276 21.3206 10.4043 20.169 12.123C20.1191 12.1988 20.0508 12.2608 19.9706 12.3033C19.8904 12.3458 19.8007 12.3673 19.71 12.366C19.6354 12.3609 19.5622 12.3426 19.494 12.312L17.01 11.286C16.8627 11.233 16.7075 11.2056 16.551 11.205C16.3943 11.2032 16.2386 11.2307 16.092 11.286C15.8098 11.4106 15.5805 11.6304 15.444 11.907L14.31 14.607C14.2027 14.9036 14.2027 15.2284 14.31 15.525C14.4373 15.8145 14.6685 16.0457 14.958 16.173L17.442 17.199C17.5108 17.2255 17.5735 17.2658 17.6262 17.3174C17.6788 17.3691 17.7203 17.4309 17.7482 17.4992C17.776 17.5676 17.7895 17.6408 17.788 17.7146C17.7864 17.7883 17.7697 17.8609 17.739 17.928C17.6984 18.0311 17.6279 18.1197 17.5364 18.1823C17.4449 18.2449 17.3368 18.2786 17.226 18.279C17.1514 18.2739 17.0782 18.2556 17.01 18.225L14.526 17.199C13.9658 16.9629 13.5201 16.5172 13.284 15.957C13.1637 15.6801 13.1017 15.3814 13.1017 15.0795C13.1017 14.7776 13.1637 14.4789 13.284 14.202L14.418 11.502C14.6527 10.9481 15.0949 10.508 15.6499 10.2759C16.205 10.0438 16.8288 10.0381 17.388 10.26L19.44 11.124L19.683 10.8C20.6582 9.50071 21.8127 8.34623 23.112 7.37099L23.436 7.12799L22.572 5.07599C22.4517 4.79907 22.3897 4.50039 22.3897 4.19849C22.3897 3.89659 22.4517 3.59791 22.572 3.32099C22.8081 2.76083 23.2538 2.31513 23.814 2.07899L26.514 0.97199C26.7905 0.858495 27.0867 0.800592 27.3857 0.801587C27.6846 0.802583 27.9804 0.862457 28.2562 0.977791C28.532 1.09312 28.7824 1.26166 28.9931 1.47377C29.2037 1.68588 29.3705 1.93741 29.484 2.21399L30.348 4.26599L30.753 4.21199C31.5579 4.09539 32.3697 4.03225 33.183 4.02299C33.9968 4.01878 34.8096 4.082 35.613 4.21199L36.018 4.26599L36.882 2.21399C37.0528 1.79651 37.3447 1.43971 37.72 1.18949C38.0953 0.939281 38.5369 0.80711 38.988 0.80999C39.2836 0.80888 39.5768 0.863852 39.852 0.97199L42.552 2.10599C43.1121 2.34213 43.5578 2.78783 43.794 3.34799C43.9142 3.62491 43.9763 3.92359 43.9763 4.22549C43.9763 4.52739 43.9142 4.82607 43.794 5.10299L42.93 7.15499L43.254 7.39799C44.5532 8.37325 45.7077 9.52773 46.683 10.827L46.926 11.151L48.978 10.287C49.2545 10.1735 49.5507 10.1156 49.8497 10.1166C50.1486 10.1176 50.4444 10.1775 50.7202 10.2928C50.996 10.4081 51.2464 10.5767 51.4571 10.7888C51.6677 11.0009 51.8345 11.2524 51.948 11.529L53.055 14.229C53.1752 14.5059 53.2373 14.8046 53.2373 15.1065C53.2373 15.4084 53.1752 15.7071 53.055 15.984C52.8188 16.5442 52.3731 16.9899 51.813 17.226L49.761 18.09L49.815 18.495C50.058 20.1059 50.058 21.7441 49.815 23.355L49.761 23.76L51.813 24.624C52.3731 24.8601 52.8188 25.3058 53.055 25.866C53.1752 26.1429 53.2373 26.4416 53.2373 26.7435C53.2373 27.0454 53.1752 27.3441 53.055 27.621L51.921 30.321C51.7501 30.7385 51.4583 31.0953 51.083 31.3455C50.7077 31.5957 50.266 31.7279 49.815 31.725C49.5193 31.7261 49.2261 31.6711 48.951 31.563L46.899 30.699L46.656 31.023C45.6807 32.3223 44.5263 33.4768 43.227 34.452L42.903 34.695L43.767 36.747C43.8872 37.0239 43.9493 37.3226 43.9493 37.6245C43.9493 37.9264 43.8872 38.2251 43.767 38.502C43.5308 39.0622 43.0851 39.5079 42.525 39.744L39.825 40.851C39.717 41.013 39.42 41.067 39.123 41.067Z" fill="white" stroke="white" stroke-width="1.5"/>
<path d="M33.372 29.268C33.226 29.2688 33.0854 29.213 32.9797 29.1123C32.8739 29.0116 32.8113 28.8739 32.8051 28.728C32.8024 28.6529 32.8154 28.5781 32.8433 28.5084C32.8712 28.4387 32.9134 28.3755 32.967 28.323C33.0668 28.2212 33.2026 28.163 33.345 28.161C35.2642 28.1538 37.1018 27.3846 38.4538 26.0225C39.8057 24.6604 40.5612 22.8171 40.554 20.898C40.5469 18.9789 39.7777 17.1412 38.4156 15.7893C37.0535 14.4373 35.2102 13.6818 33.2911 13.689H33.2371C32.2852 13.6889 31.3429 13.88 30.4663 14.2511C29.5897 14.6221 28.7966 15.1655 28.1341 15.849C27.4654 16.524 26.9373 17.3251 26.5805 18.2056C26.2236 19.0862 26.045 20.0289 26.0551 20.979C26.0577 21.054 26.0447 21.1288 26.0168 21.1986C25.9889 21.2683 25.9467 21.3314 25.8931 21.384C25.7934 21.4857 25.6575 21.544 25.5151 21.546C25.4419 21.5496 25.3688 21.5384 25.3001 21.5129C25.2314 21.4874 25.1687 21.4482 25.1156 21.3977C25.0626 21.3472 25.0204 21.2864 24.9916 21.2191C24.9628 21.1517 24.948 21.0792 24.9481 21.006C24.9409 19.9104 25.1497 18.8241 25.5624 17.8091C25.9751 16.7942 26.5837 15.8705 27.3534 15.0907C28.1231 14.311 29.0389 13.6905 30.0484 13.2647C31.0579 12.8389 32.1414 12.616 33.2371 12.609H33.2911C35.4894 12.6103 37.5984 13.4786 39.1604 15.0254C40.7224 16.5723 41.6113 18.6728 41.634 20.871C41.6484 23.0791 40.7869 25.2028 39.2382 26.7768C37.6896 28.3507 35.5801 29.2466 33.372 29.268Z" fill="white" stroke="white" stroke-width="1.5"/>
<path d="M14.9041 53.217C14.6644 53.2163 14.4273 53.1681 14.2064 53.0753C13.9854 52.9824 13.7851 52.8467 13.6169 52.676C13.4487 52.5053 13.316 52.303 13.2264 52.0807C13.1369 51.8584 13.0922 51.6206 13.0951 51.381V49.896L12.6901 49.788C11.6737 49.5239 10.7007 49.1147 9.80106 48.573L9.45006 48.357L8.39706 49.41C8.22915 49.5835 8.02761 49.7208 7.80476 49.8137C7.58192 49.9065 7.34246 49.9529 7.10106 49.95C6.86002 49.9504 6.6213 49.9029 6.3988 49.8102C6.1763 49.7175 5.97447 49.5815 5.80506 49.41L4.29306 47.898C3.95571 47.5564 3.76653 47.0956 3.76653 46.6155C3.76653 46.1354 3.95571 45.6746 4.29306 45.333L5.34606 44.28L5.13006 43.929C4.61063 43.0182 4.2027 42.0482 3.91506 41.04L3.80706 40.635H2.34906C1.86234 40.6343 1.39576 40.4406 1.0516 40.0965C0.70744 39.7523 0.513776 39.2857 0.513062 38.799V36.72C0.513776 36.2333 0.70744 35.7667 1.0516 35.4225C1.39576 35.0784 1.86234 34.8847 2.34906 34.884H3.86106L3.96906 34.479C4.23313 33.4626 4.64234 32.4896 5.18406 31.59L5.40006 31.239L4.34706 30.186C4.00971 29.8444 3.82053 29.3836 3.82053 28.9035C3.82053 28.4234 4.00971 27.9626 4.34706 27.621L5.85906 26.109C6.02697 25.9355 6.22852 25.7982 6.45136 25.7053C6.67421 25.6125 6.91366 25.5661 7.15506 25.569C7.3961 25.5685 7.63482 25.6161 7.85732 25.7088C8.07982 25.8015 8.28165 25.9375 8.45106 26.109L9.50406 27.162L9.85506 26.946C10.7658 26.4266 11.7358 26.0186 12.7441 25.731L13.1491 25.623V24.111C13.1483 23.6285 13.3378 23.1651 13.6765 22.8214C14.0151 22.4777 14.4756 22.2814 14.9581 22.275H17.0911C17.5778 22.2757 18.0444 22.4694 18.3885 22.8135C18.7327 23.1577 18.9263 23.6243 18.9271 24.111V25.623L19.3321 25.731C20.3484 25.9951 21.3215 26.4043 22.2211 26.946L22.5721 27.162L23.6251 26.109C23.793 25.9355 23.9945 25.7982 24.2174 25.7053C24.4402 25.6125 24.6797 25.5661 24.9211 25.569C25.1621 25.5685 25.4008 25.6161 25.6233 25.7088C25.8458 25.8015 26.0477 25.9375 26.2171 26.109L27.7291 27.621C27.9025 27.7889 28.0399 27.9905 28.1327 28.2133C28.2256 28.4361 28.272 28.6756 28.2691 28.917C28.2695 29.158 28.222 29.3968 28.1293 29.6193C28.0366 29.8418 27.9005 30.0436 27.7291 30.213L26.6761 31.266L26.8921 31.617C27.4115 32.5278 27.8194 33.4977 28.1071 34.506L28.2151 34.911H29.7271C30.2138 34.9117 30.6804 35.1054 31.0245 35.4495C31.3687 35.7937 31.5624 36.2603 31.5631 36.747V38.88C31.5624 39.3667 31.3687 39.8333 31.0245 40.1775C30.6804 40.5216 30.2138 40.7153 29.7271 40.716H28.0801L27.9721 41.121C27.708 42.1374 27.2988 43.1104 26.7571 44.01L26.5411 44.361L27.5941 45.414C27.7675 45.5819 27.9049 45.7834 27.9977 46.0063C28.0906 46.2291 28.137 46.4686 28.1341 46.71C28.1345 46.951 28.087 47.1898 27.9943 47.4123C27.9016 47.6348 27.7655 47.8366 27.5941 48.006L26.0821 49.518C25.9142 49.6915 25.7126 49.8288 25.4898 49.9217C25.2669 50.0145 25.0275 50.0609 24.7861 50.058C24.545 50.0584 24.3063 50.0109 24.0838 49.9182C23.8613 49.8255 23.6595 49.6895 23.4901 49.518L22.4371 48.465L22.1401 48.6C21.2293 49.1194 20.2593 49.5274 19.2511 49.815L18.8461 49.923V51.435C18.8454 51.9217 18.6517 52.3883 18.3075 52.7325C17.9634 53.0766 17.4968 53.2703 17.0101 53.271H14.9041V53.217ZM9.36906 47.115C9.48616 47.1134 9.60036 47.1514 9.69306 47.223C10.924 48.0397 12.2981 48.6168 13.7431 48.924C13.8718 48.9435 13.9892 49.0089 14.0735 49.1082C14.1579 49.2074 14.2035 49.3338 14.2021 49.464V51.408C14.2013 51.5004 14.219 51.592 14.254 51.6775C14.2891 51.763 14.3407 51.8407 14.4061 51.906C14.4714 51.9713 14.5491 52.023 14.6346 52.058C14.7201 52.093 14.8117 52.1107 14.9041 52.11H17.0371C17.1295 52.1107 17.2211 52.093 17.3066 52.058C17.3921 52.023 17.4697 51.9713 17.5351 51.906C17.6004 51.8407 17.6521 51.763 17.6871 51.6775C17.7221 51.592 17.7398 51.5004 17.7391 51.408V49.464C17.7376 49.3338 17.7832 49.2074 17.8676 49.1082C17.9519 49.0089 18.0693 48.9435 18.1981 48.924C19.6573 48.6359 21.0438 48.0574 22.2751 47.223C22.3618 47.1596 22.4648 47.1221 22.5721 47.115C22.7227 47.1157 22.8675 47.1736 22.9771 47.277L24.3541 48.654C24.4903 48.7903 24.6744 48.8678 24.8671 48.87C24.9585 48.8688 25.0487 48.849 25.1322 48.8119C25.2158 48.7747 25.2909 48.721 25.3531 48.654L26.8651 47.142C27.0013 47.0058 27.0789 46.8216 27.0811 46.629C27.0736 46.4375 26.9968 46.2552 26.8651 46.116L25.4881 44.739C25.3966 44.6478 25.3408 44.5268 25.3309 44.398C25.321 44.2692 25.3576 44.1411 25.4341 44.037C26.2685 42.8057 26.847 41.4192 27.1351 39.96C27.1546 39.8312 27.22 39.7139 27.3192 39.6295C27.4185 39.5452 27.5448 39.4995 27.6751 39.501H29.6191C29.7115 39.5017 29.8031 39.484 29.8886 39.449C29.9741 39.414 30.0517 39.3623 30.1171 39.297C30.1824 39.2317 30.2341 39.154 30.2691 39.0685C30.3041 38.983 30.3218 38.8914 30.3211 38.799V36.666C30.3218 36.5736 30.3041 36.482 30.2691 36.3965C30.2341 36.311 30.1824 36.2333 30.1171 36.168C30.0517 36.1027 29.9741 36.051 29.8886 36.016C29.8031 35.9809 29.7115 35.9633 29.6191 35.964H27.6751C27.5448 35.9655 27.4185 35.9198 27.3192 35.8355C27.22 35.7511 27.1546 35.6338 27.1351 35.505C26.842 34.0473 26.2639 32.6618 25.4341 31.428C25.3631 31.3219 25.3298 31.195 25.3396 31.0677C25.3494 30.9404 25.4017 30.82 25.4881 30.726L26.8651 29.349C27.0013 29.2128 27.0789 29.0287 27.0811 28.836C27.0736 28.6445 26.9968 28.4622 26.8651 28.323L25.3531 26.811C25.2169 26.6747 25.0327 26.5972 24.8401 26.595C24.6485 26.6025 24.4663 26.6792 24.3271 26.811L22.9501 28.188C22.8504 28.2897 22.7145 28.348 22.5721 28.35C22.4673 28.3524 22.3641 28.3242 22.2751 28.269C21.0438 27.4346 19.6573 26.8561 18.1981 26.568C18.0693 26.5485 17.9519 26.4831 17.8676 26.3838C17.7832 26.2846 17.7376 26.1582 17.7391 26.028V24.084C17.7398 23.9916 17.7221 23.9 17.6871 23.8145C17.6521 23.729 17.6004 23.6513 17.5351 23.586C17.4697 23.5207 17.3921 23.469 17.3066 23.434C17.2211 23.3989 17.1295 23.3813 17.0371 23.382H14.9041C14.8117 23.3813 14.7201 23.3989 14.6346 23.434C14.5491 23.469 14.4714 23.5207 14.4061 23.586C14.3407 23.6513 14.2891 23.729 14.254 23.8145C14.219 23.9 14.2013 23.9916 14.2021 24.084V26.028C14.2035 26.1582 14.1579 26.2846 14.0735 26.3838C13.9892 26.4831 13.8718 26.5485 13.7431 26.568C12.2853 26.8611 10.8998 27.4391 9.66606 28.269C9.5793 28.3324 9.4763 28.3699 9.36906 28.377C9.2184 28.3763 9.07363 28.3184 8.96406 28.215L7.58706 26.811C7.45086 26.6747 7.26672 26.5972 7.07406 26.595C6.88254 26.6025 6.70025 26.6792 6.56106 26.811L5.04906 28.323C4.98081 28.3899 4.92659 28.4697 4.88958 28.5578C4.85256 28.6459 4.8335 28.7404 4.8335 28.836C4.8335 28.9315 4.85256 29.0261 4.88958 29.1142C4.92659 29.2023 4.98081 29.2821 5.04906 29.349L6.48006 30.78C6.57154 30.8712 6.6273 30.9922 6.6372 31.121C6.64711 31.2498 6.61052 31.3779 6.53406 31.482C5.69962 32.7133 5.12117 34.0997 4.83306 35.559C4.81353 35.6878 4.74813 35.8051 4.6489 35.8895C4.54966 35.9738 4.42329 36.0195 4.29306 36.018H2.37606C2.28367 36.0173 2.19206 36.0349 2.10657 36.07C2.02107 36.105 1.9434 36.1567 1.87807 36.222C1.81274 36.2873 1.76106 36.365 1.72603 36.4505C1.69101 36.536 1.67334 36.6276 1.67406 36.72V38.853C1.67334 38.9454 1.69101 39.037 1.72603 39.1225C1.76106 39.208 1.81274 39.2857 1.87807 39.351C1.9434 39.4163 2.02107 39.468 2.10657 39.503C2.19206 39.538 2.28367 39.5557 2.37606 39.555H4.32006C4.45029 39.5535 4.57666 39.5992 4.6759 39.6835C4.77513 39.7679 4.84054 39.8852 4.86006 40.014C5.14817 41.4732 5.72662 42.8597 6.56106 44.091C6.63203 44.1971 6.66528 44.324 6.65549 44.4513C6.6457 44.5786 6.59343 44.699 6.50706 44.793L5.13006 46.17C5.00041 46.3039 4.92792 46.4831 4.92792 46.6695C4.92792 46.8559 5.00041 47.035 5.13006 47.169L6.64206 48.681C6.77826 48.8173 6.9624 48.8948 7.15506 48.897C7.24648 48.8958 7.33669 48.876 7.42023 48.8389C7.50377 48.8017 7.5789 48.748 7.64106 48.681L9.01806 47.304C9.05449 47.2441 9.10622 47.1951 9.16791 47.1619C9.2296 47.1286 9.29904 47.1125 9.36906 47.115Z" fill="white" stroke="white" stroke-width="1.5"/>
<path d="M15.9839 43.74C14.8091 43.74 13.6607 43.3916 12.6839 42.7389C11.707 42.0862 10.9457 41.1585 10.4961 40.0731C10.0465 38.9877 9.92889 37.7934 10.1581 36.6412C10.3873 35.4889 10.953 34.4305 11.7837 33.5998C12.6145 32.769 13.6729 32.2033 14.8251 31.9741C15.9774 31.7449 17.1717 31.8626 18.2571 32.3121C19.3425 32.7617 20.2702 33.5231 20.9229 34.4999C21.5756 35.4767 21.9239 36.6252 21.9239 37.8C21.9197 39.3741 21.2925 40.8824 20.1794 41.9955C19.0664 43.1085 17.558 43.7357 15.9839 43.74ZM15.9839 32.967C15.0281 32.967 14.0937 33.2504 13.2989 33.7815C12.5041 34.3126 11.8846 35.0674 11.5188 35.9505C11.153 36.8336 11.0573 37.8053 11.2438 38.7429C11.4303 39.6804 11.8906 40.5415 12.5665 41.2174C13.2424 41.8933 14.1036 42.3536 15.0411 42.5401C15.9786 42.7266 16.9503 42.6309 17.8335 42.2651C18.7166 41.8993 19.4714 41.2798 20.0024 40.4851C20.5335 39.6903 20.8169 38.7559 20.8169 37.8C20.8177 37.1651 20.6931 36.5363 20.4505 35.9496C20.2079 35.363 19.8519 34.8299 19.403 34.381C18.9541 33.932 18.421 33.5761 17.8343 33.3334C17.2476 33.0908 16.6188 32.9663 15.9839 32.967Z" fill="white" stroke="white" stroke-width="0.5"/>
</g>
<defs>
<clipPath id="clip0_5_44">
<rect width="54" height="54" fill="white"/>
</clipPath>
</defs>
</svg>
