<svg width="28" height="28" viewBox="0 0 28 28" fill="none" xmlns="http://www.w3.org/2000/svg">
<g clip-path="url(#clip0_43_35)">
<path d="M22.1288 17.3451C21.5556 16.7482 20.8642 16.4291 20.1314 16.4291C19.4045 16.4291 18.7072 16.7423 18.1103 17.3391L16.2429 19.2007C16.0892 19.1179 15.9356 19.0411 15.7878 18.9643C15.5751 18.8579 15.3742 18.7574 15.2028 18.6511C13.4535 17.5401 11.8639 16.0922 10.3392 14.2189C9.60048 13.2852 9.10408 12.4992 8.74359 11.7014C9.22818 11.2582 9.67731 10.7972 10.1146 10.354C10.2801 10.1885 10.4456 10.0172 10.611 9.85169C11.852 8.61067 11.852 7.00327 10.611 5.76225L8.9977 4.14893C8.81451 3.96574 8.6254 3.77663 8.44811 3.58752C8.09354 3.22113 7.72123 2.84291 7.33711 2.48834C6.76388 1.92102 6.07837 1.61963 5.3574 1.61963C4.63643 1.61963 3.93909 1.92102 3.34813 2.48834C3.34222 2.49425 3.34223 2.49425 3.33632 2.50016L1.32705 4.52715C0.570626 5.28358 0.139226 6.20547 0.0446723 7.27511C-0.0971579 9.00071 0.411067 10.6081 0.8011 11.66C1.75845 14.2425 3.18858 16.6359 5.32194 19.2007C7.91034 22.2914 11.0247 24.732 14.5823 26.4517C15.9415 27.0959 17.7557 27.8582 19.7827 27.9882C19.9068 27.9941 20.0368 28 20.155 28C21.5201 28 22.6666 27.5096 23.5648 26.5345C23.5708 26.5226 23.5826 26.5167 23.5885 26.5049C23.8958 26.1326 24.2504 25.7958 24.6227 25.4353C24.8768 25.193 25.1368 24.9389 25.3909 24.6729C25.976 24.0643 26.2833 23.3551 26.2833 22.6282C26.2833 21.8954 25.9701 21.1922 25.3732 20.6012L22.1288 17.3451ZM24.2445 23.5679C24.2385 23.5679 24.2385 23.5738 24.2445 23.5679C24.014 23.8161 23.7776 24.0406 23.5235 24.2888C23.1394 24.6552 22.7493 25.0393 22.3829 25.4707C21.7861 26.109 21.0828 26.4104 20.1609 26.4104C20.0723 26.4104 19.9777 26.4104 19.8891 26.4045C18.1339 26.2922 16.5029 25.6067 15.2796 25.0216C11.9348 23.4024 8.9977 21.1036 6.55704 18.1901C4.54187 15.7613 3.19449 13.5156 2.30214 11.1045C1.75254 9.63303 1.55162 8.48657 1.64026 7.40512C1.69936 6.7137 1.96529 6.14047 2.45579 5.64997L4.47096 3.6348C4.76053 3.36296 5.06783 3.21522 5.36922 3.21522C5.74152 3.21522 6.04291 3.43978 6.23202 3.62889C6.23793 3.6348 6.24383 3.64071 6.24974 3.64662C6.61023 3.98347 6.95299 4.33213 7.31347 4.70444C7.49667 4.89354 7.68578 5.08265 7.87488 5.27767L9.4882 6.89099C10.1146 7.5174 10.1146 8.09654 9.4882 8.72296C9.31682 8.89434 9.15135 9.06571 8.97998 9.23118C8.48357 9.73941 8.0108 10.2122 7.49667 10.6731C7.48485 10.6849 7.47303 10.6909 7.46712 10.7027C6.9589 11.2109 7.05345 11.7073 7.15982 12.0441C7.16573 12.0619 7.17164 12.0796 7.17755 12.0973C7.59713 13.1138 8.18809 14.0711 9.08635 15.2117L9.09226 15.2176C10.7233 17.2269 12.443 18.7929 14.34 19.9925C14.5823 20.1462 14.8305 20.2703 15.0669 20.3885C15.2796 20.4949 15.4805 20.5953 15.6519 20.7017C15.6755 20.7135 15.6992 20.7312 15.7228 20.7431C15.9237 20.8435 16.1129 20.8908 16.3079 20.8908C16.7984 20.8908 17.1057 20.5835 17.2061 20.483L19.2272 18.462C19.4281 18.261 19.7473 18.0187 20.1196 18.0187C20.486 18.0187 20.7873 18.2492 20.9705 18.4501C20.9764 18.4561 20.9764 18.4561 20.9824 18.462L24.2385 21.7181C24.8472 22.3209 24.8472 22.9414 24.2445 23.5679Z" fill="#0D51BE"/>
<path d="M15.1318 6.66027C16.6802 6.92029 18.0866 7.65308 19.2095 8.7759C20.3323 9.89872 21.0592 11.3052 21.3251 12.8535C21.3901 13.2436 21.727 13.5154 22.1111 13.5154C22.1584 13.5154 22.1997 13.5095 22.247 13.5036C22.6843 13.4327 22.9739 13.019 22.903 12.5817C22.5838 10.7083 21.6974 9.00047 20.3441 7.64717C18.9908 6.29387 17.2829 5.40744 15.4096 5.08832C14.9723 5.0174 14.5645 5.30697 14.4877 5.73837C14.4109 6.16977 14.6945 6.58935 15.1318 6.66027Z" fill="#0D51BE"/>
<path d="M27.9675 12.3514C27.4415 9.26658 25.9878 6.45953 23.7539 4.2257C21.5201 1.99188 18.7131 0.538116 15.6283 0.0121628C15.1969 -0.0646619 14.7891 0.230818 14.7123 0.662218C14.6414 1.09953 14.9309 1.50729 15.3682 1.58411C18.1221 2.05097 20.6337 3.35699 22.6311 5.34852C24.6286 7.34597 25.9287 9.85754 26.3955 12.6114C26.4605 13.0014 26.7974 13.2733 27.1815 13.2733C27.2288 13.2733 27.2702 13.2674 27.3174 13.2615C27.7488 13.1965 28.0443 12.7828 27.9675 12.3514Z" fill="#0D51BE"/>
</g>
<defs>
<clipPath id="clip0_43_35">
<rect width="28" height="28" fill="white"/>
</clipPath>
</defs>
</svg>
