<svg width="66" height="66" viewBox="0 0 66 66" fill="none" xmlns="http://www.w3.org/2000/svg">
<path d="M12.3083 4.14462C12.2289 4.22393 12.1721 4.59738 12.1721 5.02764V5.78637L11.5152 5.96747C10.2469 6.31842 9.11472 7.38313 8.72944 8.56088C8.55958 9.0817 8.54834 11.5277 8.54834 35.42C8.54834 55.7234 8.58207 61.7471 8.68446 61.8495C8.89989 62.0649 57.1603 62.0419 57.342 61.8264C57.4325 61.7134 57.4669 54.7718 57.4438 35.1371L57.41 8.59462L57.1041 7.96017C56.5495 6.83924 55.4736 6.01245 54.3526 5.85384L53.8431 5.78578V5.03829C53.8431 4.59679 53.7863 4.22275 53.7069 4.14403C53.5146 3.95228 12.5012 3.95228 12.3083 4.14462ZM52.937 5.36735V5.82011H33.0076H13.0782V5.36735V4.9146H33.0076H52.937V5.36735ZM54.6474 6.86232C55.225 7.03217 55.9382 7.64354 56.2554 8.24366C56.4933 8.68517 56.5045 8.84378 56.5383 12.2409L56.5726 15.7735L54.8516 15.8079C53.3566 15.8416 53.1187 15.8647 53.0056 16.0345C52.9151 16.1819 52.9151 16.295 53.0056 16.4311C53.1187 16.6122 53.3566 16.6347 54.8516 16.669L56.5614 16.7027V35.7148V54.7268L54.8516 54.7605C53.3566 54.7943 53.1187 54.8174 53.0056 54.9872C52.9151 55.1346 52.9151 55.2476 53.0056 55.3837C53.1187 55.5648 53.3566 55.5873 54.8516 55.6217L56.5614 55.6554V58.3618V61.0795H33.0076H9.45503V58.3618V55.6441L29.962 55.6217C49.3593 55.5879 50.4803 55.5767 50.6046 55.3837C50.6951 55.2476 50.6951 55.1346 50.6046 54.9872C50.4803 54.8061 49.3593 54.7949 29.962 54.7605L9.45503 54.738V35.7148V16.6915L29.962 16.669C49.3593 16.6353 50.4803 16.6234 50.6046 16.4311C50.6951 16.295 50.6951 16.1819 50.6046 16.0345C50.4803 15.8534 49.3593 15.8422 29.962 15.8079L9.44378 15.7854L9.47752 12.3545C9.51125 9.21782 9.53433 8.9006 9.73792 8.48158C10.0551 7.84772 10.7346 7.22453 11.414 6.96412C11.9916 6.73745 12.3201 6.73745 33.11 6.73745C48.8155 6.7262 54.3301 6.76052 54.6474 6.86232Z" fill="#0048BB" stroke="#0048BB" stroke-width="0.5"/>
<path d="M15.7398 8.78697C14.7887 9.11544 14.7206 9.14918 14.7094 9.45516C14.6981 9.60252 14.6188 9.88542 14.5283 10.0665C14.1093 10.9046 14.1661 11.7426 14.7094 12.6368C15.2077 13.4518 16.0227 13.9051 16.9856 13.8939C17.4158 13.8939 17.8236 13.8146 18.0615 13.6903C18.2769 13.5773 18.5823 13.4867 18.7297 13.4749C19.0357 13.4636 19.0807 13.3956 19.4204 12.354C19.9412 10.7909 19.3754 9.42083 17.9485 8.77573C17.3022 8.48159 16.6115 8.49283 15.7398 8.78697ZM17.71 9.67058C18.174 9.89725 18.548 10.4068 18.6723 10.9614C18.7516 11.2786 18.5705 12.0486 18.4231 12.0486C18.3776 12.0486 17.8118 11.5165 17.1548 10.8596C16.0114 9.71556 15.9883 9.68183 16.26 9.56879C16.7021 9.38768 17.2454 9.43267 17.71 9.67058ZM17.5289 12.9203C17.053 13.1239 16.6908 13.1014 16.1363 12.8073C15.2983 12.3995 14.9023 11.4029 15.2533 10.6329L15.3888 10.3382L16.6115 11.5609L17.8455 12.7836L17.5289 12.9203Z" fill="#0048BB" stroke="#0048BB" stroke-width="0.5"/>
<path d="M26.61 8.78699C25.6589 9.11546 25.5908 9.14919 25.5796 9.45517C25.5683 9.60254 25.489 9.88543 25.3985 10.0665C24.7759 11.3005 25.2854 12.8523 26.5419 13.5542C27.2894 13.9732 28.2854 14.03 28.9311 13.6903C29.1466 13.5773 29.4519 13.4867 29.5993 13.4749C29.9053 13.4637 29.9503 13.3956 30.29 12.354C30.709 11.0744 30.4373 9.99847 29.4975 9.19476C28.705 8.50409 27.7989 8.37981 26.61 8.78699ZM28.8068 9.77239C29.2827 10.1121 29.5312 10.6329 29.5431 11.2898C29.5431 12.2634 29.3957 12.2297 28.0599 10.8933C26.8822 9.70433 26.8597 9.68184 27.1201 9.56821C27.5498 9.3877 28.3991 9.48949 28.8068 9.77239ZM28.3991 12.9203C27.9576 13.1127 27.5835 13.0902 27.0515 12.8523C26.2134 12.4788 25.7832 11.471 26.1004 10.6779L26.2478 10.3269L27.4823 11.5615L28.7163 12.7842L28.3991 12.9203Z" fill="#0048BB" stroke="#0048BB" stroke-width="0.5"/>
<path d="M37.7073 8.71952C37.4581 8.82132 37.1184 8.92312 36.9486 8.95744C36.5976 9.0255 36.3597 9.25158 36.439 9.46701C36.4615 9.54632 36.394 9.79548 36.2916 10.0103C35.8501 10.9164 35.8951 11.7201 36.4502 12.6375C36.9486 13.4524 37.7635 13.9058 38.7264 13.8945C39.1567 13.8945 39.5645 13.8152 39.8024 13.6909C40.0172 13.5779 40.3232 13.4873 40.4706 13.4755C40.7759 13.4642 40.8215 13.3962 41.15 12.3883C41.5802 11.0632 41.4216 10.2595 40.5386 9.3877C39.7225 8.56091 38.7264 8.323 37.7073 8.71952ZM39.6657 9.74991C40.3563 10.2707 40.6511 11.1312 40.3676 11.8332L40.2202 12.1841L38.9856 10.9496L37.7523 9.72742L38.0695 9.58005C38.4885 9.39895 39.3035 9.47825 39.6657 9.74991ZM39.3153 12.9204C38.9419 13.1239 38.466 13.1015 37.9227 12.8298C37.1303 12.4564 36.7562 11.6183 36.9829 10.7803L37.1078 10.3163L38.3417 11.5503C39.5301 12.7393 39.5639 12.7842 39.3153 12.9204Z" fill="#0048BB" stroke="#0048BB" stroke-width="0.5"/>
<path d="M48.3515 8.78697C47.4004 9.11544 47.3323 9.14918 47.3211 9.45516C47.3098 9.60252 47.2305 9.88542 47.14 10.0665C46.721 10.9046 46.7778 11.7426 47.3211 12.6368C47.8194 13.4518 48.6343 13.9051 49.5973 13.8939C50.0275 13.8939 50.4353 13.8146 50.6732 13.6903C50.8881 13.5773 51.194 13.4867 51.3414 13.4749C51.6468 13.4636 51.6924 13.3956 52.0208 12.3877C52.4511 11.0626 52.2925 10.2589 51.4095 9.38709C50.5365 8.51533 49.6535 8.33422 48.3515 8.78697ZM50.5365 9.74989C51.2272 10.2707 51.5219 11.1312 51.2384 11.8331L51.091 12.1841L49.8571 10.9495L48.6225 9.72681L48.9397 9.57944C49.3593 9.39893 50.1743 9.47824 50.5365 9.74989ZM50.1855 12.9203C49.6422 13.2257 48.9172 13.0446 48.3171 12.4676C47.8413 12.0148 47.6714 11.4147 47.8413 10.7803L47.9768 10.3163L49.2114 11.5502C50.401 12.7392 50.4347 12.7842 50.1855 12.9203Z" fill="#0048BB" stroke="#0048BB" stroke-width="0.5"/>
<path d="M16.9849 19.9638C15.2863 20.3828 13.9275 22.353 14.324 23.8367C14.5276 24.5954 15.3544 24.9689 16.1356 24.6635C16.6114 24.4711 16.9281 24.0409 16.9281 23.5994C16.9281 23.2709 17.2222 22.7389 17.4376 22.6483C17.5394 22.6146 24.6846 22.5802 33.3017 22.5802C48.7586 22.5802 48.9735 22.5802 49.2001 22.8069C49.325 22.9312 49.4493 23.1579 49.483 23.3165C49.5168 23.4751 49.5623 23.7355 49.5961 23.8941C49.7884 24.8002 51.0792 25.0943 51.7929 24.3812C52.1895 23.9965 52.28 23.5432 52.1439 22.8075C51.9285 21.6866 51.2491 20.7917 50.1849 20.2259L49.5961 19.92L33.4597 19.8975C24.5828 19.8957 17.1772 19.9182 16.9849 19.9638ZM49.2007 20.8923C49.5179 20.9604 49.9819 21.1752 50.2423 21.3794C51.3065 22.1831 51.7142 24.1421 50.7632 23.9048C50.5252 23.8367 50.4572 23.7349 50.401 23.3496C50.2992 22.727 49.9932 22.2399 49.5179 21.957C49.1445 21.7304 48.9403 21.7304 33.2348 21.7304C17.5288 21.7304 17.3252 21.7304 16.9517 21.957C16.4759 22.2399 16.1705 22.727 16.0687 23.3496C16.0119 23.7349 15.9444 23.8367 15.7065 23.9048C15.0839 24.0521 14.9934 23.2822 15.4911 22.2512C15.8083 21.6173 16.4309 21.119 17.1216 20.9261C17.8454 20.7337 48.3059 20.6994 49.2007 20.8923Z" fill="#0048BB" stroke="#0048BB" stroke-width="0.5"/>
<path d="M17.0305 26.9159C16.7589 27.0633 16.3848 27.403 16.1925 27.6634L15.8528 28.1505V37.9791V47.8076L16.1925 48.2947C16.3848 48.5664 16.7589 48.8948 17.0418 49.0422L17.5513 49.3026H32.6685C43.0972 49.3026 47.9212 49.2689 48.216 49.1783C48.7818 49.0197 49.4955 48.3066 49.6541 47.7289C49.7334 47.423 49.7559 44.2413 49.7447 37.7193L49.7109 28.1511L49.3712 27.664C49.1901 27.4036 48.8048 27.0639 48.5332 26.9165L48.0349 26.6561H32.7816H17.5289L17.0305 26.9159ZM27.7421 30.0527C29.124 31.4228 30.3243 32.5443 30.4261 32.5443C30.6409 32.5443 30.9694 32.2495 30.9694 32.0572C30.9694 31.9891 29.9958 30.9475 28.795 29.7473L26.6206 27.5616H37.2422C46.8672 27.5616 47.8976 27.5841 48.1805 27.7427C48.8936 28.173 48.8599 27.6185 48.8599 37.9229C48.8599 48.3066 48.8936 47.8538 48.1236 48.216C47.8177 48.3634 47.2744 48.3971 45.1118 48.3971H42.4622L35.4424 41.3762C31.5813 37.5151 28.3428 34.3559 28.2404 34.3559C28.0025 34.3559 27.7989 34.5826 27.7989 34.8542C27.7989 35.0128 30.0295 37.3115 34.4458 41.739L41.1039 48.3971H29.3957C18.7741 48.3971 17.6756 48.3859 17.3815 48.216C16.6683 47.7857 16.7021 48.3409 16.7021 37.9797C16.7021 29.4869 16.7246 28.5245 16.8832 28.2529C17.2909 27.5735 17.3022 27.5735 21.458 27.5622H25.2398L27.7421 30.0527Z" fill="#0048BB" stroke="#0048BB" stroke-width="0.5"/>
<path d="M32.4418 34.073C32.3625 34.1636 32.3288 34.3559 32.3625 34.492C32.4531 34.8205 36.9823 39.3386 37.2203 39.3386C37.4351 39.3386 37.7636 39.0438 37.7636 38.8515C37.7636 38.6479 32.9739 33.9032 32.7584 33.9032C32.6679 33.9026 32.5211 33.9819 32.4418 34.073Z" fill="#0048BB" stroke="#0048BB" stroke-width="0.5"/>
</svg>
