<svg width="99" height="97" viewBox="0 0 99 97" fill="none" xmlns="http://www.w3.org/2000/svg">
<rect width="99" height="96.0226" rx="9" fill="white"/>
<path d="M32.075 23.3973C32.0101 23.4621 31.9637 23.7676 31.9637 24.1195V24.7402L31.4263 24.8883C30.3889 25.1754 29.4628 26.0463 29.1476 27.0096C29.0087 27.4356 28.9995 29.4364 28.9995 48.9795C28.9995 65.587 29.0271 70.5142 29.1109 70.5979C29.2871 70.7741 68.7625 70.7552 68.9111 70.579C68.9851 70.4866 69.0132 64.8086 68.9943 48.7481L68.9667 27.0372L68.7165 26.5182C68.2629 25.6014 67.3828 24.9251 66.4659 24.7953L66.0491 24.7397V24.1283C66.0491 23.7671 66.0026 23.4612 65.9377 23.3968C65.7804 23.2399 32.2328 23.2399 32.075 23.3973ZM65.3079 24.3974V24.7677H49.0064H32.7048V24.3974V24.0271H49.0064H65.3079V24.3974ZM66.707 25.6202C67.1794 25.7592 67.7628 26.2593 68.0223 26.7501C68.2169 27.1113 68.2261 27.241 68.2537 30.0197L68.2817 32.9093L66.874 32.9374C65.6511 32.965 65.4565 32.9839 65.3641 33.1228C65.29 33.2434 65.29 33.3358 65.3641 33.4472C65.4565 33.5953 65.6511 33.6137 66.874 33.6418L68.2725 33.6694V49.2206V64.7718L66.874 64.7994C65.6511 64.827 65.4565 64.8458 65.3641 64.9848C65.29 65.1053 65.29 65.1978 65.3641 65.3091C65.4565 65.4573 65.6511 65.4757 66.874 65.5037L68.2725 65.5313V67.7451V69.9681H49.0064H29.7412V67.7451V65.5221L46.5152 65.5037C62.3815 65.4761 63.2984 65.4669 63.4001 65.3091C63.4742 65.1978 63.4742 65.1053 63.4001 64.9848C63.2984 64.8366 62.3815 64.8274 46.5152 64.7994L29.7412 64.781V49.2206V33.6602L46.5152 33.6418C62.3815 33.6142 63.2984 33.6045 63.4001 33.4472C63.4742 33.3358 63.4742 33.2434 63.4001 33.1228C63.2984 32.9747 62.3815 32.9655 46.5152 32.9374L29.732 32.919L29.7595 30.1127C29.7871 27.547 29.806 27.2875 29.9726 26.9447C30.232 26.4263 30.7878 25.9165 31.3435 25.7035C31.816 25.5181 32.0847 25.5181 49.0901 25.5181C61.9367 25.5089 66.4475 25.537 66.707 25.6202Z" fill="#0048BB" stroke="#0048BB" stroke-width="0.5"/>
<path d="M34.8819 27.1946C34.1039 27.4632 34.0482 27.4908 34.039 27.7411C34.0298 27.8616 33.965 28.093 33.8909 28.2412C33.5482 28.9267 33.5946 29.6121 34.039 30.3436C34.4467 31.0102 35.1133 31.381 35.9009 31.3718C36.2528 31.3718 36.5864 31.307 36.781 31.2053C36.9572 31.1129 37.207 31.0388 37.3275 31.0291C37.5778 31.0199 37.6146 30.9642 37.8925 30.1122C38.3185 28.8337 37.8557 27.713 36.6885 27.1854C36.1599 26.9448 35.5949 26.954 34.8819 27.1946ZM36.4934 27.9173C36.873 28.1027 37.1789 28.5195 37.2806 28.9731C37.3454 29.2326 37.1973 29.8624 37.0768 29.8624C37.0395 29.8624 36.5767 29.4272 36.0393 28.8899C35.1041 27.9541 35.0852 27.9265 35.3074 27.8341C35.669 27.6859 36.1134 27.7227 36.4934 27.9173ZM36.3453 30.5755C35.9561 30.742 35.6598 30.7236 35.2062 30.483C34.5207 30.1495 34.1969 29.3343 34.4839 28.7045L34.5948 28.4634L35.5949 29.4635L36.6043 30.4637L36.3453 30.5755Z" fill="#0048BB" stroke="#0048BB" stroke-width="0.5"/>
<path d="M43.7732 27.1945C42.9953 27.4632 42.9396 27.4908 42.9304 27.7411C42.9212 27.8616 42.8564 28.093 42.7823 28.2412C42.273 29.2505 42.6898 30.5198 43.7176 31.094C44.329 31.4367 45.1437 31.4832 45.6719 31.2053C45.8481 31.1128 46.0979 31.0388 46.2184 31.0291C46.4687 31.0199 46.5055 30.9642 46.7834 30.1122C47.1261 29.0656 46.9039 28.1855 46.1352 27.5281C45.487 26.9631 44.7458 26.8615 43.7732 27.1945ZM45.5702 28.0006C45.9594 28.2784 46.1628 28.7044 46.1724 29.2418C46.1724 30.0381 46.0519 30.0105 44.9593 28.9175C43.9959 27.9449 43.9775 27.9265 44.1905 27.8336C44.542 27.6859 45.2367 27.7692 45.5702 28.0006ZM45.2367 30.5755C44.8755 30.7328 44.5696 30.7144 44.1344 30.5198C43.4489 30.2144 43.097 29.3899 43.3564 28.7412L43.477 28.4542L44.4868 29.464L45.4962 30.4641L45.2367 30.5755Z" fill="#0048BB" stroke="#0048BB" stroke-width="0.5"/>
<path d="M52.8505 27.1394C52.6467 27.2226 52.3688 27.3059 52.2299 27.334C51.9428 27.3897 51.7482 27.5746 51.8131 27.7508C51.8315 27.8157 51.7763 28.0195 51.6925 28.1952C51.3314 28.9364 51.3682 29.5938 51.8223 30.3441C52.2299 31.0107 52.8965 31.3815 53.6841 31.3723C54.036 31.3723 54.3696 31.3075 54.5642 31.2058C54.7399 31.1133 54.9902 31.0393 55.1107 31.0296C55.3605 31.0204 55.3978 30.9647 55.6665 30.1403C56.0184 29.0564 55.8887 28.399 55.1664 27.6859C54.4988 27.0096 53.6841 26.815 52.8505 27.1394ZM54.4524 27.9822C55.0173 28.4082 55.2584 29.1121 55.0265 29.6862L54.906 29.9733L53.8961 28.9635L52.8873 27.9638L53.1468 27.8433C53.4895 27.6951 54.1561 27.76 54.4524 27.9822ZM54.1658 30.5755C53.8603 30.742 53.4711 30.7236 53.0267 30.5014C52.3785 30.196 52.0725 29.5105 52.2579 28.825L52.3601 28.4455L53.3694 29.4548C54.3415 30.4274 54.3691 30.4642 54.1658 30.5755Z" fill="#0048BB" stroke="#0048BB" stroke-width="0.5"/>
<path d="M61.5569 27.1946C60.779 27.4632 60.7233 27.4908 60.7141 27.7411C60.7049 27.8616 60.64 28.093 60.566 28.2412C60.2232 28.9267 60.2697 29.6121 60.7141 30.3436C61.1217 31.0102 61.7883 31.381 62.5759 31.3718C62.9279 31.3718 63.2614 31.307 63.456 31.2053C63.6318 31.1129 63.882 31.0388 64.0026 31.0291C64.2524 31.0199 64.2896 30.9642 64.5583 30.1398C64.9103 29.0559 64.7805 28.3985 64.0582 27.6854C63.3442 26.9724 62.6219 26.8242 61.5569 27.1946ZM63.3442 27.9822C63.9091 28.4082 64.1502 29.1121 63.9183 29.6862L63.7978 29.9733L62.7885 28.9635L61.7786 27.9633L62.0381 27.8428C62.3813 27.6951 63.0479 27.76 63.3442 27.9822ZM63.0571 30.5755C62.6127 30.8253 62.0197 30.6772 61.5288 30.2052C61.1396 29.8348 61.0007 29.344 61.1396 28.825L61.2505 28.4455L62.2603 29.4548C63.2333 30.4274 63.2609 30.4642 63.0571 30.5755Z" fill="#0048BB" stroke="#0048BB" stroke-width="0.5"/>
<path d="M35.9002 36.3368C34.5109 36.6795 33.3994 38.2911 33.7237 39.5047C33.8903 40.1253 34.5666 40.4308 35.2056 40.181C35.5948 40.0237 35.8538 39.6717 35.8538 39.3106C35.8538 39.0419 36.0944 38.6067 36.2706 38.5327C36.3538 38.5051 42.1984 38.477 49.2469 38.477C61.8901 38.477 62.0658 38.477 62.2512 38.6624C62.3534 38.7641 62.455 38.9495 62.4826 39.0792C62.5102 39.2089 62.5475 39.4219 62.5751 39.5517C62.7324 40.2928 63.7882 40.5334 64.3721 39.9501C64.6964 39.6354 64.7705 39.2646 64.6591 38.6629C64.4829 37.746 63.9272 37.014 63.0568 36.5512L62.5751 36.301L49.3761 36.2826C42.1151 36.2811 36.0576 36.2995 35.9002 36.3368ZM62.2517 37.0963C62.5112 37.152 62.8907 37.3277 63.1037 37.4947C63.9741 38.1522 64.3077 39.7545 63.5297 39.5604C63.3351 39.5047 63.2795 39.4215 63.2335 39.1063C63.1502 38.597 62.8999 38.1986 62.5112 37.9672C62.2057 37.7818 62.0387 37.7818 49.1922 37.7818C36.3451 37.7818 36.1786 37.7818 35.8731 37.9672C35.4839 38.1986 35.2341 38.597 35.1509 39.1063C35.1044 39.4215 35.0492 39.5047 34.8546 39.5604C34.3453 39.6809 34.2713 39.0511 34.6784 38.2078C34.9379 37.6894 35.4471 37.2817 36.0121 37.1239C36.6041 36.9666 61.5197 36.9385 62.2517 37.0963Z" fill="#0048BB" stroke="#0048BB" stroke-width="0.5"/>
<path d="M35.9375 42.0235C35.7153 42.144 35.4093 42.4219 35.252 42.6349L34.9741 43.0333V51.0727V59.1122L35.252 59.5106C35.4093 59.7328 35.7153 60.0015 35.9467 60.122L36.3635 60.335H48.7288C57.2591 60.335 61.205 60.3074 61.4461 60.2333C61.9089 60.1036 62.4927 59.5203 62.6225 59.0478C62.6873 58.7975 62.7057 56.195 62.6965 50.8602L62.669 43.0338L62.3911 42.6354C62.2429 42.4224 61.9278 42.1445 61.7056 42.0239L61.298 41.8109H48.8213H36.3451L35.9375 42.0235ZM44.6992 44.5892C45.8296 45.7099 46.8113 46.6272 46.8946 46.6272C47.0703 46.6272 47.339 46.3862 47.339 46.2288C47.339 46.1732 46.5426 45.3211 45.5604 44.3394L43.7818 42.5516H52.4699C60.3429 42.5516 61.1857 42.57 61.4171 42.6997C62.0004 43.0517 61.9728 42.5981 61.9728 51.0267C61.9728 59.5203 62.0004 59.1499 61.3706 59.4462C61.1203 59.5667 60.6759 59.5943 58.907 59.5943H56.7397L50.9978 53.8515C47.8395 50.6932 45.1905 48.1091 45.1068 48.1091C44.9122 48.1091 44.7457 48.2945 44.7457 48.5167C44.7457 48.6464 46.5702 50.5267 50.1826 54.1482L55.6287 59.5943H46.0518C37.3636 59.5943 36.4651 59.5851 36.2245 59.4462C35.6412 59.0943 35.6688 59.5483 35.6688 51.0732C35.6688 44.1264 35.6872 43.3392 35.8169 43.117C36.1505 42.5613 36.1597 42.5613 39.559 42.5521H42.6524L44.6992 44.5892Z" fill="#0048BB" stroke="#0048BB" stroke-width="0.5"/>
<path d="M48.5438 47.8777C48.4789 47.9517 48.4513 48.1091 48.4789 48.2204C48.553 48.4891 52.2578 52.1847 52.4524 52.1847C52.6281 52.1847 52.8968 51.9436 52.8968 51.7863C52.8968 51.6198 48.979 47.7387 48.8028 47.7387C48.7287 47.7383 48.6086 47.8031 48.5438 47.8777Z" fill="#0048BB" stroke="#0048BB" stroke-width="0.5"/>
</svg>
