<svg width="99" height="97" viewBox="0 0 99 97" fill="none" xmlns="http://www.w3.org/2000/svg">
<rect width="99" height="96.0226" rx="9" fill="white"/>
<path d="M60.2561 23.48H37.7297C34.7009 23.48 32.0945 26.0144 32.0945 28.9664V65.0384C32.0945 67.9856 34.7009 70.5248 37.7297 70.5248H60.2705C63.2993 70.5248 65.9057 67.9904 65.9057 65.0384V28.9664C65.9057 26.0144 63.2849 23.48 60.2561 23.48ZM64.4369 65.0336C64.4369 67.1744 62.4929 69.0464 60.2705 69.0464H37.7297C35.5121 69.0464 33.5633 67.1696 33.5633 65.0336V41.12H64.4321V65.0336H64.4369ZM64.4369 39.6512H33.5633V28.9664C33.5633 26.8256 35.5073 24.9536 37.7297 24.9536H60.2561C62.4833 24.9536 64.4369 26.8304 64.4369 28.9664V39.6512ZM37.6097 27.1568C36.5969 27.1568 35.7713 27.9776 35.7713 28.9856V35.6192C35.7713 36.6272 36.5969 37.448 37.6097 37.448C38.6225 37.448 39.4481 36.6272 39.4481 35.6192V28.9856C39.4433 27.9728 38.6225 27.1568 37.6097 27.1568ZM37.9745 35.6144C37.9745 35.8112 37.8065 35.9744 37.6049 35.9744C37.4033 35.9744 37.2353 35.8112 37.2353 35.6144V28.9856C37.2353 28.7888 37.4033 28.6256 37.6049 28.6256C37.8065 28.6256 37.9745 28.7888 37.9745 28.9856V35.6144ZM37.6097 57.128C38.6081 57.128 39.4481 56.3408 39.4481 55.376V44.9888C39.4481 44.024 38.6129 43.2368 37.6097 43.2368C36.6113 43.2368 35.7713 44.024 35.7713 44.9888V55.376C35.7713 56.3408 36.6065 57.128 37.6097 57.128ZM37.2401 44.9888C37.2401 44.8352 37.4225 44.7056 37.6097 44.7056C37.7969 44.7056 37.9793 44.8352 37.9793 44.9888V55.376C37.9793 55.5296 37.7969 55.6592 37.6097 55.6592C37.4225 55.6592 37.2401 55.5296 37.2401 55.376V44.9888ZM61.4945 30.9248C61.0865 30.9248 60.7601 31.256 60.7601 31.6592V36.7088C60.7601 37.1168 61.0913 37.4432 61.4945 37.4432C61.9025 37.4432 62.2289 37.1168 62.2289 36.7088V31.6592C62.2289 31.2512 61.9025 30.9248 61.4945 30.9248ZM61.4945 62.9408C61.9025 62.9408 62.2289 62.6144 62.2289 62.2064V44.144C62.2289 43.736 61.9025 43.4096 61.4945 43.4096C61.0865 43.4096 60.7601 43.736 60.7601 44.144V62.2064C60.7601 62.6144 61.0865 62.9408 61.4945 62.9408ZM61.4945 27.5072C61.0865 27.5072 60.7601 27.8384 60.7601 28.2416V29.0384C60.7601 29.4464 61.0913 29.7728 61.4945 29.7728C61.9025 29.7728 62.2289 29.4464 62.2289 29.0384V28.2416C62.2289 27.8384 61.9025 27.5072 61.4945 27.5072Z" fill="#0048BB"/>
</svg>
