<svg width="57" height="57" viewBox="0 0 57 57" fill="none" xmlns="http://www.w3.org/2000/svg">
<path d="M41.8665 0.570007H15.1164C11.5197 0.570007 8.42459 3.57961 8.42459 7.08511V49.9206C8.42459 53.4204 11.5197 56.4357 15.1164 56.4357H41.8836C45.4803 56.4357 48.5754 53.4261 48.5754 49.9206V7.08511C48.5754 3.57961 45.4632 0.570007 41.8665 0.570007ZM46.8312 49.9149C46.8312 52.4571 44.5227 54.6801 41.8836 54.6801H15.1164C12.483 54.6801 10.1688 52.4514 10.1688 49.9149V21.5175H46.8255V49.9149H46.8312ZM46.8312 19.7733H10.1688V7.08511C10.1688 4.54291 12.4773 2.31991 15.1164 2.31991H41.8665C44.5113 2.31991 46.8312 4.54861 46.8312 7.08511V19.7733ZM14.9739 4.93621C13.7712 4.93621 12.7908 5.91091 12.7908 7.10791V14.9853C12.7908 16.1823 13.7712 17.157 14.9739 17.157C16.1766 17.157 17.157 16.1823 17.157 14.9853V7.10791C17.1513 5.90521 16.1766 4.93621 14.9739 4.93621ZM15.4071 14.9796C15.4071 15.2133 15.2076 15.4071 14.9682 15.4071C14.7288 15.4071 14.5293 15.2133 14.5293 14.9796V7.10791C14.5293 6.87421 14.7288 6.68041 14.9682 6.68041C15.2076 6.68041 15.4071 6.87421 15.4071 7.10791V14.9796ZM14.9739 40.527C16.1595 40.527 17.157 39.5922 17.157 38.4465V26.1117C17.157 24.966 16.1652 24.0312 14.9739 24.0312C13.7883 24.0312 12.7908 24.966 12.7908 26.1117V38.4465C12.7908 39.5922 13.7826 40.527 14.9739 40.527ZM14.535 26.1117C14.535 25.9293 14.7516 25.7754 14.9739 25.7754C15.1962 25.7754 15.4128 25.9293 15.4128 26.1117V38.4465C15.4128 38.6289 15.1962 38.7828 14.9739 38.7828C14.7516 38.7828 14.535 38.6289 14.535 38.4465V26.1117ZM43.3371 9.41071C42.8526 9.41071 42.465 9.80401 42.465 10.2828V16.2792C42.465 16.7637 42.8583 17.1513 43.3371 17.1513C43.8216 17.1513 44.2092 16.7637 44.2092 16.2792V10.2828C44.2092 9.79831 43.8216 9.41071 43.3371 9.41071ZM43.3371 47.4297C43.8216 47.4297 44.2092 47.0421 44.2092 46.5576V25.1085C44.2092 24.624 43.8216 24.2364 43.3371 24.2364C42.8526 24.2364 42.465 24.624 42.465 25.1085V46.5576C42.465 47.0421 42.8526 47.4297 43.3371 47.4297ZM43.3371 5.35231C42.8526 5.35231 42.465 5.74561 42.465 6.22441V7.17061C42.465 7.65511 42.8583 8.04271 43.3371 8.04271C43.8216 8.04271 44.2092 7.65511 44.2092 7.17061V6.22441C44.2092 5.74561 43.8216 5.35231 43.3371 5.35231Z" fill="#0048BB"/>
</svg>
