<svg width="99" height="97" viewBox="0 0 99 97" fill="none" xmlns="http://www.w3.org/2000/svg">
<rect width="99" height="96.0226" rx="9" fill="white"/>
<path d="M30.6501 22.649C30.3664 22.7502 29.981 23.0238 29.6263 23.379C28.6327 24.3827 28.7239 22.0509 28.7239 45.9976C28.7239 69.9443 28.6327 67.6125 29.6263 68.6162C30.6199 69.6098 28.7239 69.5186 49.0005 69.5186C69.2772 69.5186 67.3812 69.6098 68.3748 68.6162C69.3684 67.6125 69.2772 69.9443 69.2772 45.9976C69.2772 22.0509 69.3684 24.3827 68.3748 23.379C67.3812 22.3854 69.2872 22.4766 48.9602 22.4867C32.9311 22.4867 31.0552 22.5069 30.6501 22.649ZM67.3197 24.4331L67.6034 24.7067L67.6336 29.2691L67.6639 33.831H49H30.3357L30.366 29.2792C30.3962 24.8891 30.4063 24.7168 30.5992 24.5042C30.7106 24.3822 30.8935 24.2406 31.0048 24.1898C31.1162 24.1494 39.2676 24.1187 49.122 24.1288L67.0461 24.149L67.3197 24.4331ZM67.6341 51.3702L67.6039 67.287L67.3202 67.5606L67.0466 67.8443H49H30.954L30.6804 67.5606L30.3967 67.287L30.3664 51.3702L30.3463 35.4534H49H67.6543L67.6341 51.3702Z" fill="#0048BB"/>
<path d="M56.6036 26.704C55.9647 26.9373 55.0729 27.8498 54.8497 28.4982C54.4844 29.5528 54.7177 30.4446 55.5798 31.3067C56.4721 32.189 56.5628 32.2091 60.3548 32.2091C64.1463 32.2091 64.2375 32.189 65.1298 31.3067C65.7279 30.6986 66.0322 30.0597 66.0322 29.3704C66.0322 28.3264 65.0895 27.0486 64.0652 26.704C63.3457 26.4606 57.303 26.4606 56.6036 26.704ZM64.0753 28.4882C64.3186 28.7315 64.359 28.8429 64.359 29.3704C64.359 29.8974 64.3186 30.0093 64.0753 30.2526L63.8017 30.5363H60.3548H56.9079L56.6343 30.2526C56.391 30.0093 56.3506 29.8979 56.3506 29.3805C56.3506 28.7517 56.523 28.4277 56.9588 28.2448C57.0702 28.2045 58.6518 28.1738 60.4767 28.1838L63.8022 28.204L64.0753 28.4882Z" fill="#0048BB"/>
<path d="M62.9502 37.1771C62.271 37.3902 61.5409 38.1098 61.2774 38.8298C60.9937 39.5699 61.2572 40.5026 61.9163 41.1616C62.474 41.7295 62.8489 41.8816 63.5992 41.8816C64.3494 41.8816 64.7243 41.7295 65.272 41.1823C65.8196 40.6351 65.9713 40.2597 65.9713 39.5095C65.9713 39.0736 65.9104 38.739 65.799 38.5259C65.5758 38.1002 64.9979 37.5323 64.6028 37.3197C64.2174 37.1262 63.3558 37.0451 62.9502 37.1771ZM64.2073 38.9003C64.3393 39.0318 64.4099 39.2349 64.4099 39.5085C64.4099 39.7821 64.3388 39.9851 64.2073 40.1167C64.0758 40.2487 63.8728 40.3192 63.5992 40.3192C63.3256 40.3192 63.1225 40.2482 62.991 40.1167C62.8595 39.9847 62.7884 39.7821 62.7884 39.5085C62.7884 39.2349 62.8595 39.0318 62.991 38.9003C63.123 38.7683 63.3256 38.6978 63.5992 38.6978C63.8728 38.6978 64.0753 38.7688 64.2073 38.9003Z" fill="#0048BB"/>
<path d="M47.1247 39.6606C45.7763 39.8632 44.7525 40.1978 43.4747 40.8165C39.7135 42.6515 37.1383 45.9563 36.2565 50.0829C36.0131 51.2286 36.0131 53.7429 36.2565 54.8886C37.3816 60.1504 41.3359 64.1042 46.5976 65.2298C47.7434 65.4731 50.2576 65.4731 51.4034 65.2298C56.6651 64.1042 60.6189 60.1504 61.7445 54.8886C61.9879 53.7429 61.9879 51.2286 61.7445 50.0829C61.0442 46.8083 59.2499 44.0099 56.5936 42.0434C55.6 41.3032 53.6128 40.3096 52.5487 40.0158C50.7741 39.5291 48.7869 39.3971 47.1247 39.6606ZM51.3827 41.3742C54.8704 42.1446 57.6275 44.2638 59.1487 47.3661C60.7811 50.6915 60.7605 54.3717 59.0877 57.7072C56.3301 63.1917 49.5271 65.4016 43.8803 62.6339C37.7469 59.6229 35.7597 51.796 39.6424 45.9669C40.2607 45.0342 41.5485 43.7464 42.4811 43.1282C43.8803 42.2056 45.6947 41.4856 47.3272 41.2322C48.1787 41.1002 50.5307 41.1813 51.3827 41.3742Z" fill="#0048BB"/>
<path d="M47.3274 42.8949C43.8397 43.564 40.9098 46.0883 39.7539 49.444C39.4496 50.3262 39.703 50.8634 40.4331 50.8634C40.8488 50.8634 41.1224 50.559 41.3456 49.8496C42.2686 46.9907 44.7018 44.9531 47.7834 44.4664C48.7059 44.3243 48.777 44.2941 48.9493 43.9595C49.2229 43.4426 48.9291 42.905 48.331 42.8138C48.1688 42.783 47.7229 42.8238 47.3274 42.8949Z" fill="#0048BB"/>
<path d="M39.521 51.928C39.0142 52.4248 39.3689 53.2965 40.0788 53.2965C40.2713 53.2965 40.4844 53.2053 40.6366 53.043C40.7988 52.8909 40.89 52.6782 40.89 52.4853C40.89 52.2928 40.7988 52.0797 40.6366 51.9275C40.4844 51.7653 40.2718 51.6741 40.0788 51.6741C39.8858 51.6746 39.6727 51.7658 39.521 51.928Z" fill="#0048BB"/>
</svg>
