<svg width="57" height="57" viewBox="0 0 57 57" fill="none" xmlns="http://www.w3.org/2000/svg">
<path d="M6.70945 0.770615C6.37258 0.890884 5.91487 1.21578 5.49364 1.63758C4.31374 2.82945 4.42204 0.0603943 4.42204 28.4971C4.42204 56.9338 4.31374 54.1648 5.49364 55.3566C6.67354 56.5365 4.42204 56.4282 28.5006 56.4282C52.5791 56.4282 50.3276 56.5365 51.5075 55.3566C52.6874 54.1648 52.5791 56.9338 52.5791 28.4971C52.5791 0.0603943 52.6874 2.82945 51.5075 1.63758C50.3276 0.457684 52.591 0.565979 28.4527 0.57795C9.41809 0.57795 7.19053 0.601894 6.70945 0.770615ZM50.2546 2.8893L50.5915 3.2142L50.6274 8.63205L50.6633 14.0493H28.5H6.3361L6.37201 8.64402C6.40792 3.4308 6.41989 3.22617 6.64903 2.97366C6.78127 2.82888 6.99844 2.66073 7.13068 2.60031C7.26292 2.55243 16.9427 2.51595 28.6448 2.52792L49.9297 2.55186L50.2546 2.8893ZM50.628 34.8771L50.592 53.7783L50.2552 54.1032L49.9303 54.4401H28.5H7.07026L6.74536 54.1032L6.40849 53.7783L6.37258 34.8771L6.34864 15.9759H28.5H50.6519L50.628 34.8771Z" fill="#0048BB"/>
<path d="M37.5293 5.58596C36.7707 5.86298 35.7116 6.94655 35.4466 7.71662C35.0128 8.96891 35.2898 10.028 36.3135 11.0517C37.3731 12.0994 37.4809 12.1233 41.9839 12.1233C46.4863 12.1233 46.5946 12.0994 47.6542 11.0517C48.3645 10.3295 48.7258 9.57083 48.7258 8.75231C48.7258 7.51256 47.6064 5.99522 46.39 5.58596C45.5355 5.29697 38.3598 5.29697 37.5293 5.58596ZM46.4019 7.70465C46.6909 7.99364 46.7388 8.12588 46.7388 8.75231C46.7388 9.37817 46.6909 9.51098 46.4019 9.79997L46.077 10.1368H41.9839H37.8907L37.5658 9.79997C37.2768 9.51098 37.2289 9.37874 37.2289 8.76428C37.2289 8.01758 37.4336 7.63283 37.9511 7.41566C38.0834 7.36778 39.9615 7.3313 42.1287 7.34327L46.0776 7.36721L46.4019 7.70465Z" fill="#0048BB"/>
<path d="M45.0659 18.0228C44.2593 18.2759 43.3924 19.1303 43.0794 19.9853C42.7426 20.8643 43.0555 21.9718 43.8381 22.7544C44.5004 23.4287 44.9456 23.6094 45.8365 23.6094C46.7274 23.6094 47.1726 23.4287 47.823 22.7789C48.4733 22.1291 48.6535 21.6833 48.6535 20.7924C48.6535 20.2749 48.5811 19.8776 48.4488 19.6245C48.1838 19.1189 47.4975 18.4446 47.0284 18.1921C46.5707 17.9624 45.5475 17.8661 45.0659 18.0228ZM46.5587 20.0691C46.7155 20.2253 46.7993 20.4664 46.7993 20.7913C46.7993 21.1162 46.7149 21.3573 46.5587 21.5135C46.4025 21.6702 46.1614 21.754 45.8365 21.754C45.5116 21.754 45.2705 21.6697 45.1143 21.5135C44.9581 21.3567 44.8738 21.1162 44.8738 20.7913C44.8738 20.4664 44.9581 20.2253 45.1143 20.0691C45.2711 19.9124 45.5116 19.8286 45.8365 19.8286C46.1614 19.8286 46.402 19.9129 46.5587 20.0691Z" fill="#0048BB"/>
<path d="M26.273 20.972C24.6719 21.2125 23.4561 21.6098 21.9387 22.3445C17.4722 24.5237 14.4142 28.4481 13.3671 33.3484C13.0781 34.709 13.0781 37.6946 13.3671 39.0552C14.7032 45.3036 19.3988 49.9987 25.6471 51.3353C27.0077 51.6243 29.9934 51.6243 31.354 51.3353C37.6023 49.9987 42.2974 45.3036 43.6341 39.0552C43.9231 37.6946 43.9231 34.709 43.6341 33.3484C42.8024 29.4599 40.6718 26.1368 37.5174 23.8015C36.3375 22.9225 33.9777 21.7426 32.714 21.3938C30.6067 20.8158 28.2469 20.6591 26.273 20.972ZM31.3295 23.0069C35.4711 23.9217 38.7452 26.4383 40.5515 30.1222C42.4901 34.0712 42.4656 38.4413 40.4791 42.4023C37.2045 48.9151 29.1259 51.5394 22.4204 48.2528C15.1369 44.6771 12.7771 35.3827 17.3879 28.4606C18.122 27.3531 19.6513 25.8238 20.7588 25.0897C22.4204 23.9941 24.575 23.1391 26.5135 22.8382C27.5247 22.6814 30.3177 22.7777 31.3295 23.0069Z" fill="#0048BB"/>
<path d="M26.5135 24.8126C22.3719 25.6072 18.8926 28.6048 17.5201 32.5897C17.1587 33.6374 17.4597 34.2752 18.3266 34.2752C18.8202 34.2752 19.1451 33.9138 19.4102 33.0714C20.5063 29.6764 23.3956 27.2568 27.055 26.6788C28.1506 26.5101 28.2349 26.4742 28.4396 26.0769C28.7645 25.463 28.4156 24.8246 27.7054 24.7163C27.5127 24.6798 26.9832 24.7283 26.5135 24.8126Z" fill="#0048BB"/>
<path d="M17.2436 35.5395C16.6417 36.1294 17.0629 37.1646 17.906 37.1646C18.1345 37.1646 18.3876 37.0563 18.5683 36.8636C18.761 36.6829 18.8693 36.4304 18.8693 36.2013C18.8693 35.9727 18.761 35.7196 18.5683 35.5389C18.3876 35.3463 18.1351 35.238 17.906 35.238C17.6768 35.2385 17.4238 35.3468 17.2436 35.5395Z" fill="#0048BB"/>
</svg>
