<svg width="66" height="66" viewBox="0 0 66 66" fill="none" xmlns="http://www.w3.org/2000/svg">
<path fill-rule="evenodd" clip-rule="evenodd" d="M9.45874 5.22909C9.45874 4.06929 10.3989 3.12909 11.5587 3.12909H28.2252H29.6577H54.4412C55.601 3.12909 56.5412 4.06929 56.5412 5.22909V19.0341V33.7727V48.4899V62.2071C56.5412 63.3669 55.601 64.3071 54.4412 64.3071H29.6577H28.2252H11.5587C10.3989 64.3071 9.45874 63.3669 9.45874 62.2071V48.4899V33.7727V19.0341V5.22909ZM11.6587 5.32909V17.9341H54.3412V5.32909H29.6577H28.2252H11.6587ZM54.3412 20.1341H11.6587V32.6727H54.3412V20.1341ZM54.3412 34.8727H11.6587V47.3899H54.3412V34.8727ZM54.3412 49.5899H11.6587V62.1071H28.2252H29.6577H54.3412V49.5899ZM30.5406 54.9191H35.6671V57.4823H30.5406V54.9191ZM43.3569 54.9191H38.2304V57.4823H43.3569V54.9191ZM20.5393 13.1548C21.5353 13.1548 22.3427 12.3474 22.3427 11.3514C22.3427 10.3554 21.5353 9.54798 20.5393 9.54798C19.5433 9.54798 18.7359 10.3554 18.7359 11.3514C18.7359 12.3474 19.5433 13.1548 20.5393 13.1548ZM20.5393 14.8548C22.4742 14.8548 24.0427 13.2863 24.0427 11.3514C24.0427 9.41652 22.4742 7.84798 20.5393 7.84798C18.6044 7.84798 17.0359 9.41652 17.0359 11.3514C17.0359 13.2863 18.6044 14.8548 20.5393 14.8548ZM27.9773 54.9191H22.8508V57.4823H27.9773V54.9191ZM33.1516 13.1548C34.1476 13.1548 34.9551 12.3474 34.9551 11.3514C34.9551 10.3554 34.1476 9.54798 33.1516 9.54798C32.1556 9.54798 31.3482 10.3554 31.3482 11.3514C31.3482 12.3474 32.1556 13.1548 33.1516 13.1548ZM33.1516 14.8548C35.0865 14.8548 36.6551 13.2863 36.6551 11.3514C36.6551 9.41652 35.0865 7.84798 33.1516 7.84798C31.2167 7.84798 29.6482 9.41652 29.6482 11.3514C29.6482 13.2863 31.2167 14.8548 33.1516 14.8548ZM47.5674 11.3514C47.5674 12.3474 46.76 13.1548 45.764 13.1548C44.768 13.1548 43.9605 12.3474 43.9605 11.3514C43.9605 10.3554 44.768 9.54798 45.764 9.54798C46.76 9.54798 47.5674 10.3554 47.5674 11.3514ZM49.2674 11.3514C49.2674 13.2863 47.6988 14.8548 45.764 14.8548C43.8291 14.8548 42.2605 13.2863 42.2605 11.3514C42.2605 9.41652 43.8291 7.84798 45.764 7.84798C47.6988 7.84798 49.2674 9.41652 49.2674 11.3514ZM20.5393 28.5699C21.5353 28.5699 22.3427 27.7625 22.3427 26.7665C22.3427 25.7705 21.5353 24.9631 20.5393 24.9631C19.5433 24.9631 18.7359 25.7705 18.7359 26.7665C18.7359 27.7625 19.5433 28.5699 20.5393 28.5699ZM20.5393 30.2699C22.4742 30.2699 24.0427 28.7014 24.0427 26.7665C24.0427 24.8316 22.4742 23.2631 20.5393 23.2631C18.6044 23.2631 17.0359 24.8316 17.0359 26.7665C17.0359 28.7014 18.6044 30.2699 20.5393 30.2699ZM34.9551 26.7665C34.9551 27.7625 34.1476 28.5699 33.1516 28.5699C32.1556 28.5699 31.3482 27.7625 31.3482 26.7665C31.3482 25.7705 32.1556 24.9631 33.1516 24.9631C34.1476 24.9631 34.9551 25.7705 34.9551 26.7665ZM36.6551 26.7665C36.6551 28.7014 35.0865 30.2699 33.1516 30.2699C31.2167 30.2699 29.6482 28.7014 29.6482 26.7665C29.6482 24.8316 31.2167 23.2631 33.1516 23.2631C35.0865 23.2631 36.6551 24.8316 36.6551 26.7665ZM45.764 28.5699C46.76 28.5699 47.5674 27.7625 47.5674 26.7665C47.5674 25.7705 46.76 24.9631 45.764 24.9631C44.768 24.9631 43.9605 25.7705 43.9605 26.7665C43.9605 27.7625 44.768 28.5699 45.764 28.5699ZM45.764 30.2699C47.6988 30.2699 49.2674 28.7014 49.2674 26.7665C49.2674 24.8316 47.6988 23.2631 45.764 23.2631C43.8291 23.2631 42.2605 24.8316 42.2605 26.7665C42.2605 28.7014 43.8291 30.2699 45.764 30.2699ZM22.3427 42.1816C22.3427 43.1776 21.5353 43.985 20.5393 43.985C19.5433 43.985 18.7359 43.1776 18.7359 42.1816C18.7359 41.1856 19.5433 40.3782 20.5393 40.3782C21.5353 40.3782 22.3427 41.1856 22.3427 42.1816ZM24.0427 42.1816C24.0427 44.1165 22.4742 45.685 20.5393 45.685C18.6044 45.685 17.0359 44.1165 17.0359 42.1816C17.0359 40.2467 18.6044 38.6782 20.5393 38.6782C22.4742 38.6782 24.0427 40.2467 24.0427 42.1816ZM33.1516 43.985C34.1476 43.985 34.9551 43.1776 34.9551 42.1816C34.9551 41.1856 34.1476 40.3782 33.1516 40.3782C32.1556 40.3782 31.3482 41.1856 31.3482 42.1816C31.3482 43.1776 32.1556 43.985 33.1516 43.985ZM33.1516 45.685C35.0865 45.685 36.6551 44.1165 36.6551 42.1816C36.6551 40.2467 35.0865 38.6782 33.1516 38.6782C31.2167 38.6782 29.6482 40.2467 29.6482 42.1816C29.6482 44.1165 31.2167 45.685 33.1516 45.685ZM47.5674 42.1816C47.5674 43.1776 46.76 43.985 45.764 43.985C44.768 43.985 43.9605 43.1776 43.9605 42.1816C43.9605 41.1856 44.768 40.3782 45.764 40.3782C46.76 40.3782 47.5674 41.1856 47.5674 42.1816ZM49.2674 42.1816C49.2674 44.1165 47.6988 45.685 45.764 45.685C43.8291 45.685 42.2605 44.1165 42.2605 42.1816C42.2605 40.2467 43.8291 38.6782 45.764 38.6782C47.6988 38.6782 49.2674 40.2467 49.2674 42.1816Z" fill="#0048BB"/>
</svg>
