<svg width="99" height="97" viewBox="0 0 99 97" fill="none" xmlns="http://www.w3.org/2000/svg">
<rect width="99" height="96.0226" rx="9" fill="white"/>
<path fill-rule="evenodd" clip-rule="evenodd" d="M31.4629 25.8818C31.4629 24.9153 32.2464 24.1318 33.2129 24.1318H45.035H46.0747H63.7881C64.7546 24.1318 65.5381 24.9153 65.5381 25.8818V35.6271V46.3243V57.0059V66.6874C65.5381 67.6539 64.7546 68.4374 63.7881 68.4374H46.0747H45.035H38.624H33.2129C32.2464 68.4374 31.4629 67.6539 31.4629 66.6874V57.0059V46.3243V35.6271V25.8818ZM33.2129 25.6318C33.0748 25.6318 32.9629 25.7438 32.9629 25.8818V34.8771H64.0381V25.8818C64.0381 25.7438 63.9262 25.6318 63.7881 25.6318H46.0747H45.035H33.2129ZM64.0381 36.3771H32.9629V45.5743H64.0381V36.3771ZM64.0381 47.0743H32.9629V56.2559H64.0381V47.0743ZM64.0381 57.7559H32.9629V66.6874C32.9629 66.8255 33.0748 66.9374 33.2129 66.9374H38.624H45.035H46.0747H63.7881C63.9262 66.9374 64.0381 66.8255 64.0381 66.6874V57.7559ZM46.7141 61.6721H50.4349V63.5324H46.7141V61.6721ZM56.0159 61.6721H52.2952V63.5324H56.0159V61.6721ZM39.4558 31.5939C40.3078 31.5939 40.9985 30.9032 40.9985 30.0511C40.9985 29.1991 40.3078 28.5084 39.4558 28.5084C38.6037 28.5084 37.913 29.1991 37.913 30.0511C37.913 30.9032 38.6037 31.5939 39.4558 31.5939ZM39.4558 32.5939C40.8601 32.5939 41.9985 31.4555 41.9985 30.0511C41.9985 28.6468 40.8601 27.5084 39.4558 27.5084C38.0514 27.5084 36.913 28.6468 36.913 30.0511C36.913 31.4555 38.0514 32.5939 39.4558 32.5939ZM44.8536 61.6721H41.1329V63.5324H44.8536V61.6721ZM48.6097 31.5939C49.4618 31.5939 50.1525 30.9032 50.1525 30.0511C50.1525 29.1991 49.4618 28.5084 48.6097 28.5084C47.7577 28.5084 47.067 29.1991 47.067 30.0511C47.067 30.9032 47.7577 31.5939 48.6097 31.5939ZM48.6097 32.5939C50.014 32.5939 51.1525 31.4555 51.1525 30.0511C51.1525 28.6468 50.014 27.5084 48.6097 27.5084C47.2054 27.5084 46.067 28.6468 46.067 30.0511C46.067 31.4555 47.2054 32.5939 48.6097 32.5939ZM59.3057 30.0511C59.3057 30.9032 58.615 31.5939 57.7629 31.5939C56.9109 31.5939 56.2202 30.9032 56.2202 30.0511C56.2202 29.1991 56.9109 28.5084 57.7629 28.5084C58.615 28.5084 59.3057 29.1991 59.3057 30.0511ZM60.3057 30.0511C60.3057 31.4555 59.1672 32.5939 57.7629 32.5939C56.3586 32.5939 55.2202 31.4555 55.2202 30.0511C55.2202 28.6468 56.3586 27.5084 57.7629 27.5084C59.1672 27.5084 60.3057 28.6468 60.3057 30.0511ZM39.4558 42.782C40.3078 42.782 40.9985 42.0913 40.9985 41.2392C40.9985 40.3872 40.3078 39.6965 39.4558 39.6965C38.6037 39.6965 37.913 40.3872 37.913 41.2392C37.913 42.0913 38.6037 42.782 39.4558 42.782ZM39.4558 43.782C40.8601 43.782 41.9985 42.6436 41.9985 41.2392C41.9985 39.8349 40.8601 38.6965 39.4558 38.6965C38.0514 38.6965 36.913 39.8349 36.913 41.2392C36.913 42.6436 38.0514 43.782 39.4558 43.782ZM50.1525 41.2392C50.1525 42.0913 49.4618 42.782 48.6097 42.782C47.7577 42.782 47.067 42.0913 47.067 41.2392C47.067 40.3872 47.7577 39.6965 48.6097 39.6965C49.4618 39.6965 50.1525 40.3872 50.1525 41.2392ZM51.1525 41.2392C51.1525 42.6436 50.014 43.782 48.6097 43.782C47.2054 43.782 46.067 42.6436 46.067 41.2392C46.067 39.8349 47.2054 38.6965 48.6097 38.6965C50.014 38.6965 51.1525 39.8349 51.1525 41.2392ZM57.7629 42.782C58.615 42.782 59.3057 42.0913 59.3057 41.2392C59.3057 40.3872 58.615 39.6965 57.7629 39.6965C56.9109 39.6965 56.2202 40.3872 56.2202 41.2392C56.2202 42.0913 56.9109 42.782 57.7629 42.782ZM57.7629 43.782C59.1672 43.782 60.3057 42.6436 60.3057 41.2392C60.3057 39.8349 59.1672 38.6965 57.7629 38.6965C56.3586 38.6965 55.2202 39.8349 55.2202 41.2392C55.2202 42.6436 56.3586 43.782 57.7629 43.782ZM40.9985 52.4274C40.9985 53.2794 40.3078 53.9701 39.4558 53.9701C38.6037 53.9701 37.913 53.2794 37.913 52.4274C37.913 51.5753 38.6037 50.8846 39.4558 50.8846C40.3078 50.8846 40.9985 51.5753 40.9985 52.4274ZM41.9985 52.4274C41.9985 53.8317 40.8601 54.9701 39.4558 54.9701C38.0514 54.9701 36.913 53.8317 36.913 52.4274C36.913 51.023 38.0514 49.8846 39.4558 49.8846C40.8601 49.8846 41.9985 51.023 41.9985 52.4274ZM48.6097 53.9701C49.4618 53.9701 50.1525 53.2794 50.1525 52.4274C50.1525 51.5753 49.4618 50.8846 48.6097 50.8846C47.7577 50.8846 47.067 51.5753 47.067 52.4274C47.067 53.2794 47.7577 53.9701 48.6097 53.9701ZM48.6097 54.9701C50.014 54.9701 51.1525 53.8317 51.1525 52.4274C51.1525 51.023 50.014 49.8846 48.6097 49.8846C47.2054 49.8846 46.067 51.023 46.067 52.4274C46.067 53.8317 47.2054 54.9701 48.6097 54.9701ZM59.3057 52.4274C59.3057 53.2794 58.615 53.9701 57.7629 53.9701C56.9109 53.9701 56.2202 53.2794 56.2202 52.4274C56.2202 51.5753 56.9109 50.8846 57.7629 50.8846C58.615 50.8846 59.3057 51.5753 59.3057 52.4274ZM60.3057 52.4274C60.3057 53.8317 59.1672 54.9701 57.7629 54.9701C56.3586 54.9701 55.2202 53.8317 55.2202 52.4274C55.2202 51.023 56.3586 49.8846 57.7629 49.8846C59.1672 49.8846 60.3057 51.023 60.3057 52.4274Z" fill="#0048BB"/>
</svg>
